<?xml version="1.0" encoding="UTF-8" standalone="no"?>
<!-- Created with Inkscape (http://www.inkscape.org/) -->

<svg
   xmlns:dc="http://purl.org/dc/elements/1.1/"
   xmlns:cc="http://creativecommons.org/ns#"
   xmlns:rdf="http://www.w3.org/1999/02/22-rdf-syntax-ns#"
   xmlns:svg="http://www.w3.org/2000/svg"
   xmlns="http://www.w3.org/2000/svg"
   xmlns:sodipodi="http://sodipodi.sourceforge.net/DTD/sodipodi-0.dtd"
   xmlns:inkscape="http://www.inkscape.org/namespaces/inkscape"
   version="1.1"
   id="svg3789"
   xml:space="preserve"
   width="1056"
   height="816"
   viewBox="0 0 1056 816"
   sodipodi:docname="green-circles-pattern-freesvg.org.svg"
   inkscape:version="0.92.4 (5da689c313, 2019-01-14)"><metadata
     id="metadata3795"><rdf:RDF><cc:Work
         rdf:about=""><dc:format>image/svg+xml</dc:format><dc:type
           rdf:resource="http://purl.org/dc/dcmitype/StillImage" /><dc:title></dc:title></cc:Work></rdf:RDF></metadata><defs
     id="defs3793"><clipPath
       clipPathUnits="userSpaceOnUse"
       id="clipPath3805"><path
         d="M 0,612 H 792 V 0 H 0 Z"
         id="path3803"
         inkscape:connector-curvature="0" /></clipPath></defs><sodipodi:namedview
     pagecolor="#ffffff"
     bordercolor="#666666"
     borderopacity="1"
     objecttolerance="10"
     gridtolerance="10"
     guidetolerance="10"
     inkscape:pageopacity="0"
     inkscape:pageshadow="2"
     inkscape:window-width="1920"
     inkscape:window-height="1018"
     id="namedview3791"
     showgrid="false"
     inkscape:zoom="0.81305999"
     inkscape:cx="618.91525"
     inkscape:cy="376.88136"
     inkscape:window-x="-8"
     inkscape:window-y="-8"
     inkscape:window-maximized="1"
     inkscape:current-layer="g3797" /><g
     id="g3797"
     inkscape:groupmode="layer"
     inkscape:label="abstract-94-publicdomainvectors.org [Converted]"
     transform="matrix(1.3333333,0,0,-1.3333333,0,816)"><g
       id="g3799"><g
         id="g3801"
         clip-path="url(#clipPath3805)"><path
           d="M 792.96,0 H 1 v 610.47 h 791.96 z"
           style="fill:#80cc28;fill-opacity:1;fill-rule:nonzero;stroke:none"
           id="path3807"
           inkscape:connector-curvature="0" /><path
           d="M 792.96,0 H 688.087 c -1.583,12.682 6.449,28.164 23.584,42.238 22.075,18.067 54.093,29.735 81.289,30.385 z M 614.174,0 c -4.324,0.576 -8.262,1.719 -11.657,3.458 -18.106,9.316 -15.269,33.005 6.589,54.251 23.028,22.334 59.647,34.844 81.63,26.551 C 713.793,75.518 710.14,48.186 682.995,24.762 666.663,10.709 646.269,2.002 628.704,0 Z M 792.96,122.127 c -29.58,-18.317 -63.037,-26.513 -82.394,-19.711 -22.888,8.072 -19.415,34.904 8.146,61.668 20.245,19.648 49.014,35.004 74.248,40.521 z M 469.08,0 c 13.843,9.75 30.199,13.41 40.814,7.642 3.402,-1.859 5.851,-4.484 7.377,-7.642 z m 222.356,202.559 c 21.911,-5.073 18.262,-31.957 -7.765,-58.557 -24.715,-25.207 -59.071,-39.207 -77.198,-32.666 -17.376,6.293 -14.504,29.682 6.647,53.529 22.244,25.03 57.381,42.496 78.316,37.694 m 101.524,54.656 c -29.099,-23.944 -63.212,-38.205 -82.522,-34.254 -21.76,4.457 -18.26,30.889 8.157,60.662 20.391,22.94 49.633,42.584 74.365,50.753 z M 584.881,43.116 C 564.948,22.783 537.127,13.408 522.373,21.042 c -14.185,7.378 -11.79,28.349 5.545,47.884 18.128,20.402 46.539,32.545 63.318,26.055 17.483,-6.783 14.519,-30.533 -6.355,-51.865 M 792.96,396.048 c -29.241,-33.767 -68.572,-58.41 -89.383,-57.128 -20.306,1.314 -16.804,27.199 8.188,59.346 22.589,29.036 56.41,55.188 81.195,63.038 z M 677.831,259.424 c -23.405,-27.729 -55.833,-46.113 -72.908,-42.485 -16.384,3.567 -13.485,26.53 6.725,52.549 21.22,27.26 54.41,48.981 73.983,47.237 20.436,-1.829 16.784,-28.12 -7.8,-57.301 M 462.104,77.12 c 14.59,18.76 37.126,30.47 50.225,25.327 13.553,-5.353 11.045,-26.262 -5.43,-45.819 -15.836,-18.746 -37.909,-28.305 -49.612,-22.233 -11.293,5.915 -9.211,24.672 4.817,42.725 m 67.89,87.325 c 17.431,22.416 44.528,38.307 60.396,34.518 16.464,-4.006 13.48,-27.291 -6.443,-50.93 -19.054,-22.592 -45.586,-35.851 -59.6,-30.726 -13.498,4.98 -11.046,25.642 5.647,47.138 M 402.332,0 c 0.762,1.134 1.579,2.264 2.449,3.384 12.387,15.934 31.412,24.535 42.408,18.526 6.865,-3.764 8.793,-12.197 6.178,-21.91 z m 175.686,249.24 c -17.977,-24.408 -42.952,-40.99 -56.03,-38.086 -12.648,2.83 -10.165,23.104 5.751,46.213 16.577,24.051 42.073,43.135 56.81,41.664 15.275,-1.554 12.256,-24.306 -6.531,-49.791 M 792.96,546.139 c -4.14,-8.948 -10.335,-19.243 -18.495,-30.323 -27.097,-36.746 -64.381,-66.355 -83.791,-67.726 -18.64,-1.299 -15.096,23.902 8.205,57.775 24.492,35.543 62.748,69.041 85.164,73.375 3.641,0.696 6.607,0.582 8.917,-0.251 z M 666.111,368.779 c -21.868,-29.634 -52.066,-51.67 -67.851,-50.488 -15.217,1.148 -12.263,23.645 6.808,51.363 19.954,28.965 50.871,54.051 68.868,54.926 18.731,0.861 15.062,-24.711 -7.825,-55.801 M 353.16,0 c 1.446,4.568 3.816,9.413 7.069,14.142 10.343,15.005 25.989,23.678 34.894,18.824 8.244,-4.522 7.497,-18.851 -1.08,-32.966 z m 439.8,610.47 v -0.036 c -0.013,0.011 -0.025,0.024 -0.038,0.036 z M 443.486,66.683 C 430.668,49.306 412.82,39.746 403.428,44.636 c -9.118,4.764 -7.236,21.697 4.295,38.47 11.969,17.347 30.144,28.611 40.536,24.498 10.701,-4.266 8.506,-22.897 -4.773,-40.921 m 61.517,83.471 c -15.065,-20.447 -36.041,-33.027 -47.055,-28.945 -10.672,3.977 -8.537,22.441 4.94,41.996 13.991,20.293 35.366,34.912 47.651,31.877 12.692,-3.17 10.143,-23.658 -5.536,-44.928 m 62.628,194.93 c -16.821,-25.756 -39.974,-45.033 -52.018,-44.031 -11.665,1.002 -9.114,20.816 5.875,45.168 15.59,25.283 39.271,46.879 52.743,47.359 13.957,0.457 10.888,-21.672 -6.6,-48.496 M 314.679,0 c -0.042,6.338 2.538,14.62 7.523,22.712 8.731,14.168 21.744,22.816 29.019,18.871 7.437,-4.066 5.7,-19.56 -3.804,-34.141 C 345.624,4.697 343.698,2.204 341.708,0 Z M 740.28,610.47 c -23.509,-32.464 -52.125,-58.537 -67.708,-61.681 -16.825,-3.357 -13.266,21.129 8.213,56.022 1.166,1.889 2.364,3.777 3.592,5.659 z M 499.187,240.146 c -14.218,-21.779 -33.847,-36.904 -44.076,-34.587 -9.923,2.285 -7.72,20.375 5.073,41.148 13.263,21.518 33.306,38.559 44.658,37.348 11.707,-1.295 9.084,-21.289 -5.655,-43.909 m -58.174,-89.197 c -12.175,-18.666 -29.031,-30.601 -37.82,-27.336 -8.538,3.207 -6.617,19.844 4.436,37.78 11.418,18.539 28.605,32.084 38.287,29.652 9.955,-2.525 7.698,-20.775 -4.903,-40.096 m 208.288,319.367 c -20.165,-30.916 -47.905,-55.701 -62.287,-56.56 -13.899,-0.801 -10.906,21.115 6.892,50.027 18.586,30.131 46.989,57.74 63.245,60.67 16.896,2.967 13.229,-21.801 -7.85,-54.137 M 390.952,74.191 C 380.4,58.021 365.781,48.576 358.153,52.525 c -7.425,3.869 -5.715,19.265 3.921,34.912 9.943,16.131 24.819,26.938 33.175,23.637 8.554,-3.428 6.596,-20.184 -4.297,-36.883 m 162.417,360.086 c -15.539,-26.634 -36.767,-47.931 -47.682,-48.488 -10.608,-0.502 -7.997,18.832 5.987,44.024 14.507,26.107 36.237,49.56 48.387,51.572 12.533,2.076 9.421,-19.434 -6.692,-47.108 M 388.131,150.787 c -10.009,-17.158 -23.746,-28.504 -30.827,-25.877 -6.903,2.59 -5.135,17.709 4.07,34.272 9.478,17.054 23.475,29.683 31.196,27.73 7.909,-2.023 5.871,-18.43 -4.439,-36.125 M 645.165,610.47 c 1.6,-8.404 -4.309,-26.083 -16.854,-47.618 -18.421,-31.602 -43.573,-58.309 -56.455,-60.729 -12.512,-2.328 -9.493,18.981 6.957,48.586 13.973,25.187 33.778,49.376 48.451,59.761 z M 285.739,0 c -4.969,3.931 -3.439,16.8 3.647,29.56 7.45,13.406 18.368,21.961 24.355,18.753 6.101,-3.303 4.484,-17.458 -3.538,-31.229 C 305.26,8.605 299.146,2.454 293.919,0 Z m 61.006,79.78 c -8.809,-15.107 -20.911,-24.378 -27.148,-21.175 -6.092,3.153 -4.502,17.238 3.633,31.898 8.375,15.069 20.692,25.456 27.464,22.78 6.919,-2.75 5.108,-17.954 -3.949,-33.503 m 143.132,245.564 c -13.273,-22.754 -31.442,-39.895 -40.805,-39.082 -9.09,0.855 -6.82,18.535 5.22,40.226 12.451,22.424 31.022,41.369 41.356,41.649 10.623,0.258 7.967,-19.227 -5.771,-42.793 m -54.484,-93.473 c -11.459,-19.662 -27.188,-33.57 -35.291,-31.719 -7.897,1.828 -5.902,18.149 4.581,37.014 10.808,19.471 26.861,34.885 35.748,33.891 9.121,-1.051 6.808,-18.873 -5.038,-39.186 m -52.639,-7.637 c -9.414,-17.91 -22.18,-30.802 -28.662,-29.318 -6.336,1.48 -4.49,16.301 4.213,33.582 8.966,17.764 21.991,31.875 29.029,31.061 7.199,-0.854 5.102,-16.885 -4.58,-35.325 m -60.642,-67.548 c 7.969,15.791 19.511,27.642 25.723,26.066 6.337,-1.633 4.461,-16.508 -4.097,-32.822 -8.34,-15.875 -19.668,-26.672 -25.413,-24.557 -5.618,2.096 -3.956,15.922 3.787,31.313 M 477.56,404.787 c -12.288,-23.361 -28.917,-42.037 -37.343,-42.408 -8.235,-0.322 -5.885,16.949 5.34,39.246 11.613,23.006 28.613,43.342 37.876,44.787 9.513,1.457 6.785,-17.471 -5.873,-41.625 m 58.366,111.168 c -14.213,-27.068 -33.475,-49.758 -43.216,-51.508 -9.503,-1.679 -6.82,17.153 6.089,42.824 13.387,26.549 33.098,51.217 43.885,54.348 11.1,3.203 7.982,-17.598 -6.758,-45.664 M 426.985,308.475 c -10.702,-20.364 -25.215,-35.85 -32.574,-35.161 -7.192,0.696 -5.123,16.651 4.726,36.202 10.16,20.134 24.974,37.005 33.017,37.185 8.233,0.135 5.855,-17.215 -5.169,-38.226 M 582.083,610.47 c -11.094,-15.031 -21.826,-25.755 -28.608,-27.878 -7.494,-2.34 -8.522,6.275 -3.888,21.119 2.899,2.235 5.818,4.488 8.76,6.759 z M 286.386,63.271 c -5.019,2.568 -3.524,15.531 3.426,29.319 7.121,14.129 17.417,24.111 22.941,21.949 5.624,-2.226 3.945,-16.105 -3.686,-30.641 C 301.62,69.733 291.513,60.667 286.386,63.271 M 260.803,35.032 c 6.415,12.717 15.645,21.149 20.588,18.527 5.021,-2.69 3.505,-15.693 -3.339,-28.728 -6.685,-12.72 -15.759,-20.342 -20.36,-17.36 -4.511,2.939 -3.138,15.133 3.111,27.561 M 462.76,477.84 c -11.262,-23.649 -26.343,-43.322 -33.825,-44.623 -7.339,-1.233 -4.937,15.615 5.46,38.236 10.712,23.297 26.14,44.502 34.33,46.815 8.383,2.345 5.631,-16.038 -5.965,-40.428 M 235.709,39.392 c 5.563,12.091 13.408,20.364 17.503,18.232 4.142,-2.188 2.697,-14.196 -3.184,-26.561 -5.772,-12.095 -13.481,-19.692 -17.316,-17.253 -3.76,2.413 -2.449,13.745 2.997,25.582 m 139.404,254.381 c -8.78,-18.427 -20.544,-32.541 -26.384,-31.986 -5.731,0.555 -3.815,15.076 4.363,32.871 8.409,18.266 20.415,33.498 26.739,33.608 6.462,0.093 4.291,-15.549 -4.718,-34.493 M 260.776,93.905 c 6.121,13.302 14.783,22.904 19.303,21.154 4.592,-1.801 3.008,-14.55 -3.483,-28.194 -6.346,-13.331 -14.859,-22.164 -19.087,-20.054 -4.145,2.092 -2.711,14.084 3.267,27.094 m 27.627,60.081 c 6.765,14.703 16.37,25.862 21.399,24.6 5.114,-1.311 3.367,-14.898 -3.836,-30.031 -7.028,-14.764 -16.452,-25.055 -21.142,-23.356 -4.59,1.694 -3.016,14.424 3.579,28.787 m 127.786,226.051 c -9.904,-20.795 -23.171,-37.408 -29.764,-37.676 -6.46,-0.213 -4.323,15.373 4.869,35.366 9.448,20.546 23.007,38.47 30.183,39.546 7.328,1.082 4.904,-15.834 -5.288,-37.236 M 338.616,217.119 c -7.833,-16.443 -18.332,-28.476 -23.546,-27.281 -5.116,1.195 -3.384,14.756 3.939,30.699 7.518,16.34 18.223,29.352 23.847,28.697 5.732,-0.677 3.789,-15.234 -4.24,-32.115 M 219.008,0 c 3.709,4.698 7.439,6.997 9.794,5.447 C 230.108,4.577 230.8,2.636 230.92,0 Z m 286.205,569.439 c -10.569,-17.785 -21.654,-31.06 -27.987,-33.001 -3.738,-1.098 -5.268,1.837 -4.814,7.667 10.627,8.186 21.543,16.639 32.801,25.334 M 259.169,151.15 c 5.807,13.756 13.851,24.303 17.936,23.299 4.14,-1.053 2.491,-13.543 -3.633,-27.648 -5.993,-13.801 -13.894,-23.635 -17.718,-22.266 -3.762,1.361 -2.253,13.147 3.415,26.615 m 72.46,129.598 c -7.311,-16.822 -16.94,-29.787 -21.608,-29.357 -4.593,0.455 -2.792,13.75 4.086,30.078 7.061,16.709 16.884,30.594 21.899,30.674 5.108,0.062 3.107,-14.157 -4.377,-31.395 m 94.489,227.602 c -4.161,-5.612 -7.859,-9.26 -10.473,-10.036 -0.915,-0.246 -1.641,-0.173 -2.196,0.25 4.18,3.211 8.39,6.485 12.669,9.786 m -22.71,-62.284 c -9.103,-20.97 -21.106,-38.349 -26.925,-39.306 -5.718,-0.938 -3.513,14.306 4.991,34.513 8.747,20.735 21.017,39.329 27.327,41.036 6.425,1.748 3.957,-14.702 -5.393,-36.243 M 195.676,0 c 4.116,7.894 8.897,12.688 11.512,11.002 1.867,-1.22 2.162,-5.475 1.101,-11.002 z m 17.839,42.846 c 4.857,11.52 11.561,19.627 14.946,17.892 3.428,-1.77 2.032,-12.918 -3.068,-24.673 -5,-11.524 -11.596,-19.051 -14.785,-17.063 -3.132,1.974 -1.856,12.543 2.907,23.844 m 87.589,167.593 c -6.601,-15.199 -15.306,-26.478 -19.523,-25.525 -4.148,0.945 -2.499,13.445 3.727,28.244 6.388,15.125 15.259,27.215 19.773,26.69 4.586,-0.551 2.773,-13.856 -3.977,-29.409 M 235.338,94.611 c 5.295,12.565 12.625,21.797 16.336,20.393 3.76,-1.445 2.246,-13.229 -3.331,-26.079 -5.468,-12.582 -12.665,-21.18 -16.152,-19.472 -3.431,1.693 -2.048,12.845 3.147,25.158 m 130.194,264.223 c -8.131,-18.725 -18.852,-33.688 -24.049,-33.891 -5.11,-0.162 -3.135,14.036 4.504,32.151 7.828,18.564 18.79,34.57 24.391,35.396 5.711,0.801 3.494,-14.445 -4.846,-33.656 m -11.184,60.217 c -7.487,-18.819 -17.176,-34.334 -21.724,-35.09 -4.492,-0.699 -2.439,13.184 4.639,31.434 7.243,18.666 17.153,35.164 22.036,36.472 4.984,1.309 2.719,-13.545 -4.951,-32.816 M 252.555,180.135 c -3.356,0.761 -1.787,12.332 3.567,26.136 5.468,14.083 12.874,25.354 16.506,24.959 3.676,-0.445 1.959,-12.681 -3.773,-27.103 -5.625,-14.127 -12.889,-24.746 -16.3,-23.992 m -18.958,-31.914 c 5.017,12.922 11.8,22.925 15.115,22.133 3.353,-0.831 1.783,-12.391 -3.476,-25.598 -5.155,-12.949 -11.808,-22.358 -14.933,-21.266 -3.073,1.092 -1.625,12.051 3.294,24.731 M 212.881,94.828 c 4.622,11.904 10.851,20.797 13.893,19.674 3.068,-1.156 1.613,-12.1 -3.211,-24.241 -4.741,-11.912 -10.86,-20.266 -13.736,-18.895 -2.82,1.376 -1.479,11.776 3.054,23.462 m 81.801,174.231 c -6.159,-15.475 -14.116,-27.471 -17.857,-27.143 -3.683,0.363 -1.971,12.617 3.876,27.703 5.985,15.401 14.106,28.166 18.095,28.227 4.05,0.041 2.175,-12.973 -4.114,-28.787 m 28.367,71.312 c -6.767,-17.027 -15.533,-30.654 -19.653,-30.807 -4.052,-0.123 -2.186,12.903 4.23,29.456 6.571,16.921 15.52,31.404 19.926,32.029 4.482,0.615 2.421,-13.266 -4.503,-30.678 M 176.088,0 c 3.956,10.163 9.249,17.206 11.827,15.581 2.06,-1.316 1.7,-7.794 -0.588,-15.581 z m 17.676,45.556 c 4.27,10.998 10.014,18.924 12.808,17.523 2.823,-1.43 1.471,-11.817 -2.978,-23.015 -4.379,-10.995 -10.022,-18.431 -12.667,-16.819 -2.601,1.607 -1.354,11.502 2.837,22.311 M 318.825,425.48 c 2.259,-1.886 -0.017,-14.32 -5.68,-29.783 -6.236,-17.062 -14.142,-31.074 -17.707,-31.674 -3.529,-0.546 -1.602,12.215 4.356,28.846 4.206,11.74 9.353,22.438 13.406,28.268 1.863,1.437 3.748,2.877 5.625,4.343 M 248.071,233.203 c -2.951,0.277 -1.32,11.647 3.704,25.666 5.121,14.285 11.886,26.092 15.058,26.152 3.214,0.042 1.434,-11.962 -3.904,-26.568 -5.249,-14.326 -11.867,-25.502 -14.858,-25.25 M 159.122,0 c 0.38,1.258 0.805,2.546 1.272,3.848 3.517,9.812 8.109,16.813 10.247,15.499 2.056,-1.284 1.01,-9.866 -2.29,-19.347 z m 33.811,94.654 c 4.053,11.309 9.368,19.883 11.85,18.992 2.496,-0.923 1.086,-11.128 -3.122,-22.633 -4.14,-11.307 -9.352,-19.421 -11.709,-18.326 -2.315,1.099 -1.001,10.847 2.981,21.967 m 94.004,229.41 c -5.715,-15.607 -12.932,-28.105 -16.191,-28.238 -3.219,-0.101 -1.446,11.93 4.01,27.17 5.568,15.543 12.947,28.748 16.415,29.242 3.517,0.483 1.587,-12.252 -4.234,-28.174 M 176.087,47.647 c 3.773,10.52 8.707,18.262 11.008,17.143 2.314,-1.144 0.996,-10.867 -2.913,-21.555 -3.85,-10.511 -8.695,-17.834 -10.879,-16.536 -2.152,1.296 -0.922,10.596 2.784,20.948 m 34.968,97.585 c 4.372,12.188 10.115,21.711 12.799,21.084 2.709,-0.65 1.189,-11.4 -3.352,-23.818 -4.464,-12.199 -10.101,-21.213 -12.639,-20.348 -2.509,0.86 -1.095,11.106 3.192,23.082 m 19.557,54.575 c 4.723,13.173 10.945,23.765 13.86,23.453 2.945,-0.338 1.306,-11.68 -3.613,-25.123 -4.827,-13.199 -10.927,-23.219 -13.68,-22.639 -2.715,0.596 -1.197,11.371 3.433,24.309 M 175.107,94.164 c 3.578,10.771 8.122,19.047 10.133,18.348 2.019,-0.721 0.64,-10.287 -3.049,-21.218 -3.634,-10.76 -8.092,-18.64 -10.006,-17.774 -1.887,0.87 -0.596,10.04 2.922,20.644 m 33.044,99.547 c 4.112,12.377 9.355,22.359 11.678,22.121 2.351,-0.25 0.769,-10.812 -3.483,-23.404 -4.182,-12.381 -9.319,-21.879 -11.526,-21.434 -2.178,0.471 -0.707,10.541 3.331,22.717 M 160.192,49.227 c 3.349,10.081 7.593,17.638 9.468,16.752 1.883,-0.908 0.588,-10.038 -2.861,-20.258 -3.402,-10.068 -7.569,-17.261 -9.354,-16.229 -1.763,1.034 -0.547,9.802 2.747,19.735 m 30.866,92.988 c 3.829,11.531 8.706,20.613 10.864,20.127 2.173,-0.506 0.701,-10.543 -3.254,-22.26 -3.897,-11.527 -8.676,-20.178 -10.729,-19.504 -2.022,0.684 -0.645,10.287 3.119,21.637 m 92.71,256.187 c -0.369,-4.912 -2.393,-13.406 -5.684,-23.172 -5.272,-15.599 -11.76,-28.38 -14.544,-28.847 -2.767,-0.428 -0.934,11.377 4.134,26.65 2.3,6.93 4.884,13.434 7.317,18.592 2.886,2.24 5.818,4.494 8.777,6.777 m -27.884,-88.904 c -4.862,-14.404 -10.848,-25.955 -13.421,-26.066 -2.545,-0.092 -0.852,11.088 3.835,25.207 4.772,14.373 10.887,26.521 13.612,26.904 2.755,0.379 0.922,-11.381 -4.026,-26.045 m -29.37,-60.463 c 4.422,13.322 10.079,24.309 12.593,24.369 2.539,0.032 0.842,-11.091 -3.741,-24.662 -4.503,-13.332 -10.04,-23.799 -12.422,-23.609 -2.354,0.203 -0.776,10.81 3.57,23.902 M 144.178,0 c 0.53,2.226 1.213,4.635 2.034,7.108 3.142,9.457 7.115,16.368 8.868,15.32 1.754,-1.07 0.542,-9.801 -2.691,-19.379 C 152.032,1.995 151.667,0.976 151.297,0 Z m 60.1,239.982 c 3.847,12.479 8.596,22.768 10.569,22.819 1.989,0.041 0.353,-10.338 -3.608,-23.01 -3.903,-12.471 -8.544,-22.305 -10.417,-22.172 -1.858,0.152 -0.329,10.078 3.456,22.363 m 24.647,56.375 c -4.181,-13.369 -9.162,-24.115 -11.176,-24.207 -1.994,-0.07 -0.355,10.356 3.695,23.514 4.124,13.367 9.22,24.586 11.338,24.908 2.144,0.287 0.394,-10.627 -3.857,-24.215 m 23.379,77.745 c -0.838,-4.514 -2.342,-10.463 -4.392,-17.02 -4.491,-14.363 -9.847,-26.127 -12.015,-26.475 -2.15,-0.345 -0.393,10.647 3.952,24.766 1.37,4.428 2.83,8.658 4.272,12.408 2.701,2.08 5.423,4.192 8.183,6.321 M 188.24,187.939 c 3.597,11.672 8.031,21.114 9.866,20.94 1.85,-0.193 0.323,-10.061 -3.378,-21.902 -3.65,-11.663 -7.987,-20.692 -9.739,-20.356 -1.731,0.356 -0.293,9.82 3.251,21.318 M 159.101,93.42 c 3.171,10.281 7.06,18.277 8.669,17.734 1.615,-0.552 0.26,-9.55 -2.991,-19.961 -3.21,-10.261 -7.024,-17.917 -8.56,-17.242 -1.515,0.681 -0.241,9.331 2.882,19.469 M 130.859,0 c 0.534,2.863 1.374,6.26 2.472,9.82 2.814,9.125 6.252,15.936 7.67,15.112 1.419,-0.841 0.22,-9.087 -2.664,-18.313 C 137.58,4.2 136.786,1.963 136.002,0 Z m 14.975,50.378 c 2.982,9.676 6.639,17.055 8.145,16.357 1.514,-0.706 0.241,-9.312 -2.819,-19.102 -3.021,-9.656 -6.604,-16.714 -8.05,-15.905 -1.422,0.815 -0.219,9.103 2.724,18.65 m 27.375,88.808 c 3.373,10.945 7.523,19.627 9.241,19.255 1.722,-0.392 0.29,-9.8 -3.176,-20.892 -3.419,-10.93 -7.481,-19.235 -9.122,-18.719 -1.616,0.531 -0.268,9.568 3.057,20.356 m 20.25,113.865 c 1.536,0.041 -0.048,-9.678 -3.495,-21.567 -3.402,-11.713 -7.304,-20.998 -8.759,-20.906 -1.442,0.108 0.052,9.445 3.374,21.018 3.369,11.74 7.359,21.404 8.88,21.455 m -48.8,-160.58 c 2.823,9.836 6.149,17.56 7.415,17.154 1.265,-0.426 -0.06,-8.908 -2.945,-18.846 -2.845,-9.807 -6.107,-17.238 -7.319,-16.726 -1.198,0.518 0.065,8.709 2.849,18.418 m 80.143,260.39 c -0.776,-3.527 -1.835,-7.631 -3.103,-12.025 -3.868,-13.313 -8.306,-24.184 -9.964,-24.459 -1.648,-0.273 0.037,10.012 3.809,23.143 0.808,2.824 1.652,5.556 2.495,8.117 2.231,1.726 4.483,3.468 6.763,5.224 M 118.886,0 c 0.431,3.125 1.374,7.432 2.703,12.064 2.529,8.814 5.501,15.515 6.628,14.882 1.124,-0.648 -0.068,-8.458 -2.648,-17.353 C 124.481,5.845 123.326,2.521 122.276,0 Z m 38.31,136.164 c 2.988,10.414 6.517,18.723 7.861,18.453 1.348,-0.285 -0.057,-9.15 -3.112,-19.681 -3.019,-10.389 -6.475,-18.383 -7.759,-17.991 -1.272,0.397 0.063,8.942 3.01,19.219 m 13.283,46.293 c 3.171,11.047 6.919,20 8.348,19.883 1.437,-0.137 -0.053,-9.408 -3.296,-20.584 -3.201,-11.024 -6.867,-19.625 -8.235,-19.379 -1.353,0.264 0.06,9.186 3.183,20.08 m 34.844,101.951 c -3.623,-12.478 -7.784,-22.512 -9.334,-22.594 -1.539,-0.07 0.046,9.717 3.581,22.034 3.585,12.496 7.843,22.949 9.472,23.191 1.639,0.227 -0.045,-9.969 -3.719,-22.631 M 132.809,51.17 c 2.67,9.302 5.812,16.494 7.004,15.966 1.193,-0.543 -0.063,-8.678 -2.79,-18.073 -2.692,-9.274 -5.772,-16.19 -6.917,-15.57 -1.127,0.629 0.068,8.487 2.703,17.677 M 108.059,0 c 0.212,2.86 1.235,8.09 2.792,13.906 2.281,8.522 4.843,15.11 5.714,14.637 0.868,-0.484 -0.321,-7.902 -2.637,-16.489 -1.395,-5.162 -2.869,-9.538 -4,-12.054 z m 58.955,223.789 c 2.968,11.084 6.324,20.186 7.47,20.246 1.156,0.022 -0.383,-9.103 -3.406,-20.297 -2.981,-11.049 -6.265,-19.832 -7.367,-19.777 -1.088,0.076 0.375,8.887 3.303,19.828 m 33.769,110.52 c -0.59,-2.52 -1.277,-5.266 -2.052,-8.141 -3.352,-12.406 -7.043,-22.498 -8.278,-22.721 -1.234,-0.203 0.405,9.449 3.688,21.721 0.468,1.75 0.949,3.461 1.423,5.111 1.73,1.33 3.462,2.68 5.219,4.03 m -16.281,-60.844 c -3.16,-11.697 -6.636,-21.111 -7.802,-21.184 -1.157,-0.051 0.393,9.158 3.488,20.739 3.145,11.732 6.699,21.5 7.917,21.691 1.227,0.184 -0.402,-9.391 -3.603,-21.246 M 154.558,177.24 c 2.806,10.487 5.979,19.01 7.062,18.928 1.085,-0.092 -0.375,-8.838 -3.228,-19.42 -2.824,-10.451 -5.927,-18.67 -6.964,-18.492 -1.03,0.187 0.362,8.631 3.13,18.984 M 137.91,107.961 c 0.966,-0.315 -0.343,-8.345 -2.909,-17.852 -2.537,-9.392 -5.321,-16.609 -6.25,-16.229 -0.92,0.385 0.333,8.16 2.825,17.475 2.524,9.428 5.365,16.901 6.334,16.606 m 4.852,25.199 c 2.659,9.936 5.658,17.91 6.683,17.717 1.026,-0.205 -0.356,-8.584 -3.062,-18.607 -2.673,-9.901 -5.609,-17.594 -6.593,-17.313 -0.967,0.297 0.344,8.389 2.972,18.203 M 120.953,51.656 c 2.397,8.958 5.093,15.968 6.012,15.581 0.913,-0.406 -0.33,-8.118 -2.767,-17.146 -2.41,-8.923 -5.052,-15.694 -5.936,-15.233 -0.869,0.471 0.322,7.944 2.691,16.798 m 30.32,164.836 c 2.624,10.5 5.446,19.129 6.277,19.17 0.83,0.029 -0.673,-8.603 -3.334,-19.18 -2.631,-10.453 -5.387,-18.789 -6.184,-18.763 -0.792,0.051 0.649,8.396 3.241,18.773 m -21.575,-86.304 c 2.376,9.5 4.921,17.164 5.668,17.031 0.747,-0.143 -0.615,-8.082 -3.021,-17.647 -2.38,-9.457 -4.868,-16.875 -5.589,-16.681 -0.713,0.203 0.595,7.902 2.942,17.297 m 36.32,133.195 c -2.773,-11.012 -5.677,-19.865 -6.517,-19.938 -0.839,-0.041 0.68,8.666 3.41,19.596 2.763,11.059 5.736,20.242 6.615,20.373 0.878,0.143 -0.699,-8.885 -3.508,-20.031 m -19.841,-73.061 c 0.788,-0.066 -0.642,-8.334 -3.17,-18.386 -2.502,-9.936 -5.119,-17.797 -5.876,-17.68 -0.752,0.127 0.621,8.14 3.085,18.008 2.499,9.982 5.174,18.103 5.961,18.058 M 119.679,90.109 c 2.264,9.054 4.686,16.289 5.396,16.08 0.71,-0.214 -0.588,-7.845 -2.881,-16.957 -2.268,-9.01 -4.638,-16.016 -5.323,-15.753 -0.675,0.276 0.571,7.675 2.808,16.63 M 98.414,0 c -0.56,0.549 0.576,7.342 2.589,15.402 2.064,8.25 4.264,14.719 4.909,14.383 0.638,-0.348 -0.543,-7.411 -2.631,-15.708 C 101.363,6.457 99.368,0.506 98.594,0 Z m 16.855,67.09 c 0.672,-0.287 -0.566,-7.622 -2.751,-16.312 -2.164,-8.597 -4.424,-15.221 -5.076,-14.894 -0.642,0.336 0.547,7.46 2.683,16.007 2.16,8.635 4.465,15.471 5.144,15.199 m 64.458,250.957 c -0.389,-1.668 -0.813,-3.416 -1.265,-5.217 -2.924,-11.613 -5.993,-21.037 -6.878,-21.209 -0.889,-0.142 0.711,8.953 3.59,20.477 0.256,1.025 0.513,2.037 0.773,3.029 1.259,0.963 2.51,1.943 3.78,2.92 m -30.213,-64 c -2.443,-10.402 -4.867,-18.776 -5.429,-18.826 -0.565,-0.03 0.923,8.23 3.344,18.58 2.448,10.461 4.925,19.101 5.512,19.201 0.59,0.103 -0.954,-8.436 -3.427,-18.955 m -7.16,-26.205 c 0.561,0.021 -0.914,-8.154 -3.268,-18.184 -2.332,-9.922 -4.64,-17.855 -5.178,-17.845 -0.535,0.031 0.883,7.96 3.192,17.832 2.333,9.978 4.698,18.152 5.254,18.197 M 100.206,51.907 c 1.952,8.341 3.915,15.005 4.38,14.828 0.459,-0.189 -0.773,-7.184 -2.74,-15.56 -1.95,-8.293 -3.87,-14.77 -4.321,-14.557 -0.439,0.225 0.749,7.031 2.681,15.289 m 22.411,91.741 c 0.507,-0.091 -0.837,-7.642 -2.988,-16.789 -2.127,-9.052 -4.23,-16.214 -4.719,-16.088 -0.486,0.135 0.814,7.471 2.919,16.483 2.129,9.103 4.28,16.476 4.788,16.394 m 38.556,160.069 c -0.225,-1.008 -0.468,-2.039 -0.713,-3.092 -2.566,-10.922 -5.114,-19.76 -5.702,-19.881 -0.595,-0.101 0.964,8.518 3.504,19.377 0.13,0.553 0.26,1.104 0.389,1.647 0.84,0.644 1.682,1.293 2.522,1.949 M 127.245,167.508 c 2.227,9.525 4.481,17.289 5.013,17.263 0.533,-0.035 -0.876,-7.89 -3.124,-17.462 -2.225,-9.473 -4.428,-17.012 -4.941,-16.936 -0.511,0.076 0.846,7.709 3.052,17.135 M 91.949,16.603 c 1.869,7.992 3.75,14.339 4.195,14.12 0.437,-0.233 -0.743,-6.976 -2.628,-15.001 -1.869,-7.951 -3.71,-14.121 -4.14,-13.867 -0.42,0.263 0.722,6.83 2.573,14.748 m 16.876,72.154 c 2.037,8.709 4.09,15.715 4.577,15.584 0.481,-0.145 -0.804,-7.406 -2.86,-16.154 -2.035,-8.661 -4.042,-15.466 -4.513,-15.296 -0.462,0.179 0.781,7.245 2.796,15.866 m 25.879,156.606 c -2.167,-9.859 -4.175,-17.799 -4.504,-17.83 -0.33,-0.019 1.138,7.846 3.29,17.676 2.177,9.928 4.235,18.086 4.573,18.156 0.344,0.053 -1.17,-8.041 -3.359,-18.002 m -27.696,-121 c 1.916,8.741 3.722,15.848 4.021,15.801 0.297,-0.051 -1.036,-7.252 -2.96,-16.018 -1.91,-8.681 -3.671,-15.591 -3.962,-15.529 -0.284,0.08 1.004,7.088 2.901,15.746 m 8.457,38.594 c 1.999,9.109 3.881,16.545 4.193,16.535 0.312,-0.021 -1.077,-7.5 -3.084,-16.638 -1.99,-9.051 -3.828,-16.278 -4.132,-16.249 -0.296,0.057 1.048,7.327 3.023,16.352 M 102.75,102.434 c 0.283,-0.083 -0.995,-7.016 -2.842,-15.431 -1.833,-8.336 -3.524,-14.948 -3.804,-14.857 -0.271,0.107 0.966,6.864 2.789,15.177 1.839,8.392 3.57,15.185 3.857,15.111 M 87.163,31.398 C 87.422,31.265 86.238,24.813 84.534,17.038 82.837,9.335 81.279,3.267 81.021,3.411 c -0.248,0.153 0.897,6.448 2.581,14.133 1.697,7.754 3.294,13.977 3.561,13.854 m 57.571,259.622 c -0.119,-0.536 -0.233,-1.079 -0.356,-1.624 -2.265,-10.306 -4.368,-18.625 -4.707,-18.705 -0.345,-0.07 1.186,8.133 3.435,18.405 0.06,0.269 0.118,0.537 0.176,0.802 0.481,0.375 0.968,0.747 1.452,1.122 m -20.45,-87.819 c 2.083,9.508 4.052,17.289 4.377,17.32 0.328,0.01 -1.123,-7.761 -3.217,-17.298 -2.076,-9.444 -3.997,-17.018 -4.311,-17.014 -0.315,0.016 1.088,7.578 3.151,16.992 M 91.096,51.745 c 1.766,8.063 3.428,14.561 3.705,14.464 0.269,-0.11 -0.956,-6.796 -2.732,-14.88 -1.761,-8.011 -3.386,-14.344 -3.653,-14.224 -0.262,0.13 0.928,6.651 2.68,14.64 m 6.017,69.78 c 1.727,8.405 3.232,15.254 3.348,15.245 0.114,-0.022 -1.208,-6.907 -2.938,-15.323 -1.715,-8.343 -3.184,-15.021 -3.299,-15.006 -0.108,0.032 1.174,6.75 2.889,15.084 M 82.708,51.431 c 1.604,7.803 2.997,14.141 3.105,14.107 0.104,-0.042 -1.121,-6.449 -2.728,-14.263 -1.592,-7.747 -2.956,-13.934 -3.062,-13.893 -0.098,0.051 1.096,6.308 2.685,14.049 m 7.069,34.396 c 1.663,8.098 3.111,14.683 3.223,14.66 0.107,-0.035 -1.161,-6.672 -2.83,-14.777 -1.654,-8.037 -3.067,-14.465 -3.177,-14.435 -0.103,0.042 1.136,6.525 2.784,14.552 m 31.573,151.427 c -1.931,-9.373 -3.583,-16.91 -3.707,-16.93 -0.127,-0.006 1.315,7.504 3.243,16.867 1.941,9.45 3.637,17.186 3.765,17.215 0.133,0.022 -1.354,-7.689 -3.301,-17.152 m -8.699,-40.133 c 1.868,9.082 3.494,16.506 3.618,16.522 0.125,0 -1.305,-7.416 -3.174,-16.508 -1.855,-9.01 -3.443,-16.246 -3.563,-16.25 -0.12,0.01 1.269,7.236 3.119,16.236 m 17.432,82.582 c -0.045,-0.226 -0.095,-0.455 -0.141,-0.685 -2.01,-9.762 -3.729,-17.625 -3.86,-17.655 -0.133,-0.021 1.367,7.789 3.375,17.535 0.026,0.129 0.052,0.256 0.08,0.383 0.187,0.137 0.365,0.282 0.546,0.422 M 105.159,158.561 c -1.784,-8.666 -3.31,-15.616 -3.427,-15.61 -0.114,0.02 1.222,6.987 3,15.645 1.795,8.734 3.358,15.863 3.479,15.863 0.12,-0.01 -1.254,-7.154 -3.052,-15.898 M 75.891,18.264 c 1.55,7.526 2.889,13.629 2.995,13.587 C 78.983,31.798 77.802,25.61 76.254,18.074 74.716,10.602 73.404,4.64 73.301,4.69 c -0.094,0.061 1.056,6.109 2.59,13.574 M 65.04,0 c 0.072,0.351 0.111,0.539 0.111,0.539 0,0 -0.034,-0.188 -0.097,-0.539 z m 25.754,133.463 c 0.046,-0.012 -1.191,-6.625 -2.754,-14.723 -1.551,-8.035 -2.834,-14.488 -2.88,-14.483 -0.043,0.014 1.166,6.481 2.714,14.513 1.562,8.093 2.873,14.693 2.92,14.693 M 66.152,5.729 c 0,0 1.056,5.88 2.453,13.137 1.413,7.312 2.592,13.259 2.637,13.244 0,0 -1.078,-6.004 -2.488,-13.317 -1.4,-7.26 -2.602,-13.064 -2.602,-13.064 m 51.022,264.003 c -0.022,-0.099 -0.038,-0.199 -0.057,-0.298 -1.791,-9.278 -3.281,-16.737 -3.325,-16.76 -0.055,0 1.344,7.437 3.131,16.711 0.011,0.06 0.023,0.121 0.035,0.181 0.069,0.059 0.141,0.114 0.216,0.166 M 91.94,139.406 c -0.045,0.01 1.207,6.701 2.81,15.018 1.617,8.385 2.978,15.224 3.026,15.23 0.048,-0.006 -1.235,-6.853 -2.853,-15.242 -1.603,-8.32 -2.935,-15.006 -2.983,-15.006 M 84.051,98.515 c 0.045,-0.013 -1.152,-6.406 -2.659,-14.23 -1.499,-7.763 -2.738,-13.997 -2.783,-13.984 -0.042,0.016 1.128,6.27 2.622,14.029 1.508,7.82 2.775,14.192 2.82,14.185 M 77.539,64.752 c 0.042,-0.018 -1.112,-6.201 -2.573,-13.764 -1.445,-7.505 -2.645,-13.525 -2.689,-13.512 0,0 1.089,6.071 2.536,13.573 1.458,7.558 2.68,13.711 2.726,13.703 m 28.703,148.791 c -0.05,0.006 1.297,7.18 3.019,16.115 1.74,9.012 3.205,16.373 3.252,16.393 0.054,0 -1.326,-7.348 -3.066,-16.363 -1.724,-8.944 -3.157,-16.131 -3.205,-16.145 m -1.231,-6.385 c 0.05,-0.01 -1.28,-7.092 -2.957,-15.787 -1.664,-8.623 -3.043,-15.549 -3.09,-15.558 -0.048,0.005 1.249,6.933 2.911,15.55 1.676,8.692 3.087,15.785 3.136,15.795 M 64.168,32.208 C 64.337,32.13 63.425,26.27 62.136,19.155 60.855,12.09 59.691,6.474 59.522,6.559 c -0.163,0.091 0.728,5.837 2.003,12.888 1.285,7.102 2.47,12.831 2.643,12.761 m 37.32,206.022 c 0.211,0.041 -0.894,-6.962 -2.458,-15.587 -1.552,-8.561 -2.971,-15.452 -3.172,-15.493 -0.206,-0.015 0.876,6.832 2.419,15.373 1.558,8.606 3,15.666 3.211,15.707 M 67.176,50.674 c 1.328,7.323 2.547,13.245 2.727,13.193 0.174,-0.062 -0.765,-6.092 -2.094,-13.429 -1.323,-7.284 -2.522,-13.088 -2.698,-13.022 -0.169,0.075 0.749,5.986 2.065,13.258 M 58.173,0 c 0.225,0.985 0.38,1.534 0.433,1.506 C 58.656,1.478 58.609,0.935 58.485,0 Z m 33.473,185.883 c 1.506,8.324 2.903,15.129 3.105,15.154 0.204,0.016 -0.868,-6.771 -2.378,-15.113 -1.502,-8.279 -2.871,-14.932 -3.067,-14.947 -0.198,0.015 0.847,6.646 2.34,14.906 M 73.005,82.881 c 1.367,7.557 2.63,13.682 2.814,13.648 0.181,-0.048 -0.79,-6.25 -2.16,-13.82 -1.364,-7.516 -2.601,-13.518 -2.783,-13.469 -0.175,0.061 0.77,6.14 2.129,13.641 m 32.998,178.224 c -0.026,-0.162 -0.06,-0.326 -0.087,-0.488 -1.607,-8.853 -3.069,-16.023 -3.283,-16.064 -0.21,-0.051 0.903,7.025 2.502,15.859 l 0.004,0.026 c 0.293,0.218 0.57,0.451 0.864,0.667 M 85.932,150.398 c -1.451,-8.011 -2.777,-14.443 -2.968,-14.427 -0.19,0.019 0.821,6.468 2.267,14.465 1.458,8.054 2.807,14.615 3.003,14.627 0.195,-0.016 -0.838,-6.592 -2.302,-14.665 M 79.02,116.117 c 1.411,7.801 2.716,14.143 2.907,14.127 0.188,-0.031 -0.81,-6.416 -2.23,-14.23 -1.409,-7.758 -2.686,-13.968 -2.873,-13.94 -0.18,0.048 0.797,6.303 2.196,14.043 M 51.805,0 c 0.344,1.486 0.603,2.341 0.718,2.283 C 52.627,2.227 52.592,1.387 52.444,0 Z m 44.061,253.275 c -0.054,-0.295 -0.103,-0.593 -0.152,-0.894 -1.443,-8.471 -2.893,-15.358 -3.245,-15.438 -0.352,-0.078 0.52,6.649 1.953,15.084 0.008,0.053 0.019,0.102 0.026,0.153 0.47,0.367 0.938,0.736 1.418,1.095 M 54.958,19.846 c 1.176,6.903 2.36,12.431 2.651,12.317 0.286,-0.124 -0.441,-5.862 -1.62,-12.788 -1.171,-6.882 -2.344,-12.308 -2.628,-12.171 -0.277,0.146 0.432,5.782 1.597,12.642 m 10.459,61.535 c 1.242,7.31 2.503,13.218 2.811,13.159 0.304,-0.068 -0.462,-6.093 -1.714,-13.428 -1.244,-7.285 -2.483,-13.081 -2.785,-12.999 -0.295,0.094 0.454,6.007 1.688,13.268 m 12.253,65.164 c -1.317,-7.727 -2.637,-13.928 -2.957,-13.906 -0.317,0.029 0.48,6.248 1.787,13.949 1.319,7.752 2.659,14.064 2.985,14.08 0.328,-0.006 -0.49,-6.344 -1.815,-14.123 m -5.66,-33.199 c -1.28,-7.5 -2.558,-13.493 -2.869,-13.442 -0.307,0.063 0.465,6.125 1.737,13.602 1.278,7.527 2.578,13.635 2.895,13.609 0.316,-0.041 -0.477,-6.217 -1.763,-13.769 M 60.113,50.174 c 1.209,7.102 2.43,12.815 2.729,12.729 0.295,-0.096 -0.452,-5.975 -1.666,-13.102 -1.21,-7.078 -2.411,-12.685 -2.705,-12.575 -0.286,0.119 0.445,5.892 1.642,12.948 m 25.258,145.072 c 0.338,0.035 -0.504,-6.475 -1.869,-14.494 -1.358,-7.965 -2.719,-14.377 -3.049,-14.393 -0.328,0 0.491,6.377 1.84,14.311 1.359,7.99 2.742,14.529 3.078,14.576 m 6.068,35.649 c 0.351,0.07 -0.516,-6.612 -1.925,-14.881 -1.399,-8.211 -2.805,-14.858 -3.145,-14.903 -0.34,-0.035 0.506,6.51 1.896,14.69 1.4,8.238 2.826,15.017 3.174,15.094 m -9.185,-6.901 c 0.473,0.104 -0.183,-6.285 -1.458,-14.228 -1.27,-7.893 -2.663,-14.295 -3.121,-14.371 -0.46,-0.057 0.182,6.21 1.435,14.062 1.264,7.902 2.674,14.426 3.144,14.537 M 58.405,79.844 c 1.132,7.081 2.39,12.787 2.808,12.713 0.417,-0.081 -0.168,-5.939 -1.313,-13.053 -1.135,-7.07 -2.379,-12.677 -2.788,-12.57 -0.404,0.118 0.171,5.872 1.293,12.91 m 18.368,109.91 c 0.457,0.057 -0.182,-6.193 -1.419,-13.918 -1.231,-7.674 -2.587,-13.863 -3.033,-13.889 -0.445,-0.009 0.177,6.121 1.398,13.756 1.225,7.686 2.598,13.99 3.054,14.051 M 53.569,49.572 c 1.106,6.895 2.325,12.417 2.733,12.305 0.404,-0.124 -0.171,-5.858 -1.28,-12.786 -1.102,-6.886 -2.315,-12.313 -2.714,-12.167 -0.393,0.154 0.171,5.793 1.261,12.648 m 16.492,93.27 c -1.197,-7.465 -2.515,-13.455 -2.948,-13.43 -0.43,0.041 0.175,6.035 1.361,13.463 1.194,7.477 2.526,13.57 2.969,13.586 0.444,0 -0.176,-6.107 -1.382,-13.619 m -5.149,-32.098 c -1.167,-7.265 -2.445,-13.056 -2.867,-12.993 -0.419,0.076 0.169,5.954 1.327,13.183 1.163,7.275 2.456,13.171 2.887,13.14 0.43,-0.041 -0.177,-6.021 -1.347,-13.33 m 21.715,135.397 c -0.073,-0.485 -0.151,-0.977 -0.232,-1.473 -1.306,-8.121 -2.739,-14.756 -3.213,-14.873 -0.475,-0.107 0.177,6.303 1.473,14.379 0.025,0.17 0.053,0.338 0.082,0.506 0.625,0.488 1.257,0.972 1.89,1.461 M 45.893,0 c 0.432,1.877 0.785,2.98 0.966,2.892 C 47.024,2.808 47.015,1.729 46.866,0 Z m 2.966,20.084 c 1.074,6.719 2.263,12.064 2.66,11.915 C 51.911,31.84 51.35,26.22 50.27,19.472 49.189,12.764 48.016,7.511 47.627,7.69 c -0.379,0.191 0.167,5.717 1.232,12.394 M 73.834,217.49 c 0.577,0.149 0.111,-5.98 -1.044,-13.627 -1.146,-7.601 -2.536,-13.791 -3.1,-13.886 -0.567,-0.082 -0.106,5.929 1.027,13.482 1.14,7.596 2.539,13.895 3.117,14.031 M 40.402,0 c 0.494,2.172 0.929,3.472 1.179,3.356 C 41.806,3.248 41.836,1.982 41.703,0 Z m 27.45,171.16 c -1.12,-7.408 -2.47,-13.392 -3.02,-13.433 -0.55,-0.02 -0.101,5.88 1.004,13.24 1.114,7.404 2.474,13.496 3.035,13.576 0.565,0.076 0.107,-5.932 -1.019,-13.383 m -9.507,-62.955 c -1.059,-7.043 -2.344,-12.652 -2.867,-12.581 -0.517,0.087 -0.091,5.784 0.96,12.784 1.059,7.039 2.349,12.74 2.881,12.715 0.532,-0.041 0.095,-5.836 -0.974,-12.918 M 47.496,48.883 c 1.004,6.701 2.232,12.047 2.737,11.917 0.502,-0.142 0.089,-5.738 -0.931,-12.48 -1.011,-6.703 -2.229,-11.962 -2.725,-11.793 -0.49,0.18 -0.083,5.69 0.919,12.356 m 4.416,29.397 c 1.029,6.868 2.289,12.388 2.808,12.307 0.518,-0.09 0.086,-5.784 -0.953,-12.693 -1.039,-6.871 -2.284,-12.3 -2.793,-12.18 -0.505,0.133 -0.088,5.738 0.938,12.566 m 11.126,61.003 c -1.092,-7.22 -2.405,-13.017 -2.942,-12.996 -0.533,0.029 -0.093,5.832 0.983,13.008 1.086,7.217 2.41,13.105 2.955,13.135 0.549,0.015 0.1,-5.883 -0.996,-13.147 m 15.139,100.33 c -0.101,-0.711 -0.208,-1.441 -0.318,-2.185 -1.179,-7.803 -2.607,-14.203 -3.185,-14.362 -0.585,-0.136 -0.113,5.983 1.052,13.731 0.051,0.351 0.109,0.701 0.16,1.047 0.761,0.586 1.521,1.179 2.291,1.769 M 43.185,20.188 c 0.979,6.543 2.177,11.72 2.669,11.543 0.49,-0.185 0.084,-5.69 -0.911,-12.27 C 43.95,12.918 42.77,7.822 42.286,8.039 c -0.477,0.223 -0.081,5.643 0.899,12.149 m 4.885,56.098 c -0.951,-6.681 -2.201,-11.955 -2.799,-11.819 -0.592,0.144 -0.323,5.601 0.619,12.234 0.94,6.669 2.2,12.021 2.808,11.937 0.609,-0.095 0.332,-5.635 -0.628,-12.352 M 35.3,0 c 0.536,2.386 1.038,3.833 1.354,3.693 C 36.936,3.563 37.01,2.159 36.901,0 Z m 6.55,48.122 c 0.919,6.521 2.15,11.708 2.743,11.564 0.594,-0.151 0.318,-5.617 -0.616,-12.183 -0.927,-6.532 -2.15,-11.641 -2.735,-11.45 -0.578,0.197 -0.312,5.583 0.608,12.069 m 23.572,150.159 c -1.045,-7.334 -2.423,-13.338 -3.085,-13.449 -0.659,-0.107 -0.358,5.67 0.667,12.945 1.035,7.315 2.422,13.405 3.093,13.577 0.679,0.164 0.373,-5.7 -0.675,-13.073 M 37.9,20.174 c 0.899,6.378 2.099,11.401 2.679,11.205 0.579,-0.207 0.307,-5.598 -0.605,-12.018 -0.91,-6.388 -2.1,-11.339 -2.672,-11.095 -0.562,0.25 -0.303,5.564 0.598,11.908 m 18.644,115.689 c -0.994,-6.996 -2.308,-12.613 -2.937,-12.603 -0.625,0.025 -0.344,5.638 0.643,12.58 0.984,6.98 2.306,12.691 2.945,12.726 0.642,0.026 0.351,-5.668 -0.651,-12.703 m -4.286,-30.131 c -0.97,-6.836 -2.253,-12.278 -2.866,-12.205 -0.609,0.089 -0.328,5.62 0.63,12.407 0.966,6.822 2.252,12.343 2.876,12.324 0.625,-0.031 0.339,-5.653 -0.64,-12.526 m 9.336,73.858 c 0.66,0.092 0.361,-5.686 -0.663,-12.885 -1.022,-7.162 -2.366,-12.967 -3.01,-13.017 -0.642,-0.036 -0.348,5.652 0.654,12.759 1.013,7.145 2.364,13.041 3.019,13.143 m 8.825,54.031 c -0.119,-0.965 -0.251,-1.969 -0.398,-3.004 -1.072,-7.51 -2.487,-13.707 -3.162,-13.894 -0.68,-0.168 -0.372,5.685 0.68,13.134 0.084,0.586 0.17,1.166 0.255,1.737 0.873,0.67 1.741,1.351 2.625,2.027 m -7.151,-5.523 c -0.124,-1.225 -0.28,-2.532 -0.461,-3.895 -0.973,-7.242 -2.382,-13.25 -3.142,-13.473 -0.764,-0.205 -0.607,5.409 0.351,12.584 0.117,0.872 0.238,1.725 0.364,2.553 0.961,0.737 1.917,1.485 2.888,2.231 M 32.97,20.059 C 33.797,26.279 35,31.163 35.661,30.951 36.32,30.73 36.177,25.452 35.335,19.182 34.5,12.939 33.299,8.125 32.648,8.388 c -0.643,0.271 -0.5,5.479 0.322,11.671 m 26.004,185.494 c 0.763,0.193 0.601,-5.438 -0.349,-12.559 -0.949,-7.086 -2.327,-12.906 -3.07,-13.049 -0.745,-0.127 -0.587,5.422 0.345,12.446 0.941,7.056 2.318,12.959 3.074,13.162 M 30.557,0 c 0.56,2.53 1.117,4.08 1.494,3.921 C 32.387,3.774 32.509,2.275 32.431,0 Z m 12.549,86.713 c 0.691,-0.097 0.544,-5.485 -0.334,-12.022 -0.866,-6.505 -2.126,-11.633 -2.806,-11.493 -0.674,0.147 -0.527,5.466 0.33,11.917 0.865,6.483 2.12,11.679 2.81,11.598 m 11.772,88.166 c 0.745,0.117 0.59,-5.451 -0.345,-12.42 -0.926,-6.936 -2.273,-12.568 -3.001,-12.639 -0.726,-0.05 -0.575,5.436 0.342,12.309 0.916,6.906 2.266,12.623 3.004,12.75 M 46.947,115.48 c 0.708,-0.027 0.555,-5.476 -0.337,-12.153 -0.895,-6.642 -2.173,-11.935 -2.87,-11.861 -0.691,0.081 -0.542,5.458 0.334,12.045 0.884,6.618 2.168,11.989 2.873,11.969 M 36.596,47.304 c 0.848,6.349 2.074,11.391 2.749,11.239 0.674,-0.161 0.528,-5.492 -0.33,-11.894 -0.851,-6.373 -2.079,-11.339 -2.745,-11.138 -0.659,0.212 -0.509,5.473 0.326,11.793 m 14.274,97.557 c 0.727,0.041 0.575,-5.465 -0.341,-12.283 -0.91,-6.787 -2.222,-12.25 -2.934,-12.244 -0.708,0.016 -0.557,5.447 0.338,12.176 0.9,6.76 2.215,12.301 2.937,12.351 m -9.447,-32.072 c 0.785,-0.016 0.757,-5.307 -0.063,-11.799 -0.817,-6.464 -2.103,-11.621 -2.873,-11.548 -0.765,0.077 -0.735,5.301 0.066,11.703 0.807,6.431 2.09,11.648 2.87,11.644 M 26.137,0 c 0.574,2.614 1.176,4.225 1.61,4.051 C 28.131,3.892 28.3,2.337 28.257,0 Z m 18.874,141.307 c 0.801,0.066 0.774,-5.268 -0.062,-11.889 -0.835,-6.592 -2.145,-11.904 -2.932,-11.914 -0.784,0.004 -0.757,5.267 0.063,11.793 0.82,6.555 2.134,11.945 2.931,12.01 M 37.905,84.818 c 0.767,-0.091 0.742,-5.339 -0.066,-11.707 -0.797,-6.34 -2.059,-11.334 -2.814,-11.192 -0.749,0.146 -0.717,5.332 0.068,11.613 0.794,6.307 2.048,11.365 2.812,11.286 m -3.45,-27.436 c 0.749,-0.163 0.722,-5.369 -0.069,-11.616 -0.782,-6.221 -2.018,-11.061 -2.757,-10.85 -0.732,0.217 -0.705,5.361 0.07,11.524 0.773,6.189 2.006,11.09 2.756,10.942 M 28.368,19.856 c 0.766,6.073 1.968,10.83 2.701,10.608 0.732,-0.232 0.705,-5.399 -0.07,-11.527 C 30.229,12.834 29.02,8.141 28.296,8.42 27.58,8.704 27.612,13.809 28.368,19.856 m 28.283,203.132 c -0.114,-1.476 -0.28,-3.111 -0.497,-4.836 -0.885,-6.996 -2.288,-12.836 -3.124,-13.089 -0.842,-0.229 -0.81,5.15 0.056,12.074 0.153,1.197 0.318,2.365 0.491,3.476 1.023,0.783 2.043,1.578 3.074,2.375 m -7.982,-52.595 c 0.82,0.142 0.792,-5.231 -0.06,-11.985 -0.847,-6.722 -2.191,-12.205 -2.994,-12.293 -0.801,-0.07 -0.77,5.231 0.062,11.887 0.842,6.686 2.177,12.244 2.992,12.391 m 3.731,29.668 c 0.845,0.214 0.811,-5.19 -0.056,-12.079 -0.87,-6.859 -2.237,-12.523 -3.058,-12.685 -0.82,-0.152 -0.792,5.189 0.059,11.98 0.854,6.819 2.226,12.545 3.055,12.784 m -1.898,18.177 c -0.078,-1.699 -0.242,-3.675 -0.495,-5.802 -0.808,-6.77 -2.2,-12.459 -3.109,-12.739 -0.909,-0.265 -0.993,4.908 -0.206,11.602 0.184,1.57 0.407,3.084 0.639,4.49 1.049,0.813 2.104,1.631 3.171,2.449 M 33.063,82.956 c 0.835,-0.084 0.917,-5.194 0.176,-11.402 -0.734,-6.185 -1.999,-11.059 -2.821,-10.919 -0.817,0.145 -0.888,5.2 -0.17,11.319 0.734,6.144 1.984,11.078 2.815,11.002 m 3.227,27.228 c 0.853,-0.006 0.933,-5.141 0.183,-11.462 -0.754,-6.295 -2.037,-11.32 -2.876,-11.261 -0.833,0.071 -0.908,5.147 -0.176,11.376 0.743,6.254 2.021,11.341 2.869,11.347 m 3.285,27.714 c 0.87,0.082 0.952,-5.082 0.19,-11.517 -0.769,-6.408 -2.076,-11.592 -2.932,-11.613 -0.851,-0.004 -0.931,5.091 -0.184,11.431 0.754,6.367 2.061,11.614 2.926,11.699 m 3.344,28.221 c 0.889,0.168 0.972,-5.021 0.197,-11.576 -0.781,-6.525 -2.115,-11.879 -2.988,-11.977 -0.869,-0.095 -0.954,5.034 -0.19,11.489 0.765,6.482 2.1,11.886 2.981,12.064 m 3.406,28.736 c 0.911,0.252 0.996,-4.957 0.205,-11.63 -0.799,-6.647 -2.158,-12.161 -3.048,-12.352 -0.887,-0.184 -0.977,4.973 -0.198,11.543 0.779,6.6 2.143,12.172 3.041,12.439 M 29.894,56.209 c 0.817,-0.16 0.897,-5.246 0.169,-11.347 -0.722,-6.077 -1.962,-10.802 -2.769,-10.586 -0.799,0.221 -0.866,5.249 -0.164,11.264 0.72,6.036 1.948,10.82 2.764,10.669 M 24.066,19.58 c 0.704,5.935 1.913,10.572 2.713,10.347 0.8,-0.236 0.878,-5.296 0.163,-11.291 C 26.229,12.664 25.016,8.084 24.224,8.372 23.441,8.666 23.374,13.669 24.066,19.58 M 22.019,0 c 0.578,2.646 1.215,4.282 1.698,4.099 C 24.146,3.931 24.362,2.354 24.356,0 Z m 15.567,162.045 c 0.953,0.189 1.142,-4.822 0.43,-11.191 -0.712,-6.342 -2.05,-11.565 -2.985,-11.688 -0.93,-0.111 -1.115,4.846 -0.418,11.113 0.702,6.293 2.033,11.557 2.973,11.766 M 18.177,0 c 0.577,2.633 1.24,4.262 1.766,4.072 C 20.409,3.9 20.669,2.333 20.703,0 Z m 26.585,213.805 c -0.012,-1.869 -0.156,-4.205 -0.443,-6.774 -0.738,-6.56 -2.123,-12.113 -3.095,-12.418 -0.969,-0.3 -1.16,4.68 -0.442,11.16 0.222,1.989 0.501,3.895 0.817,5.59 1.043,0.811 2.098,1.625 3.163,2.442 M 40.7,189.92 c 0.971,0.287 1.165,-4.736 0.441,-11.213 -0.725,-6.451 -2.088,-11.83 -3.039,-12.049 -0.951,-0.203 -1.143,4.766 -0.43,11.137 0.705,6.398 2.065,11.836 3.028,12.125 M 20.044,19.242 c 0.649,5.803 1.861,10.333 2.723,10.107 0.863,-0.237 1.031,-5.193 0.377,-11.061 C 22.487,12.442 21.265,7.964 20.411,8.258 19.567,8.557 19.403,13.46 20.044,19.242 M 28.55,81.133 C 29.448,81.061 29.628,76.08 28.948,70.02 28.27,63.98 27.002,59.218 26.117,59.354 c -0.877,0.138 -1.049,5.068 -0.387,11.038 0.671,5.991 1.927,10.804 2.82,10.741 m 5.974,53.496 c 0.934,0.101 1.119,-4.902 0.419,-11.166 -0.702,-6.238 -2.015,-11.297 -2.932,-11.338 -0.912,-0.02 -1.095,4.924 -0.407,11.09 0.686,6.189 1.995,11.306 2.92,11.414 M 25.635,55.031 c 0.879,-0.157 1.057,-5.123 0.387,-11.087 -0.666,-5.941 -1.911,-10.557 -2.781,-10.343 -0.861,0.22 -1.03,5.137 -0.376,11.011 0.652,5.896 1.893,10.565 2.77,10.419 m 5.878,52.631 c 0.915,0.018 1.097,-4.979 0.407,-11.141 -0.687,-6.136 -1.979,-11.049 -2.88,-10.997 -0.894,0.057 -1.075,4.998 -0.397,11.064 0.674,6.09 1.961,11.051 2.87,11.074 M 21.516,68.847 C 22.125,74.694 23.39,79.4 24.339,79.35 25.294,79.288 25.561,74.435 24.938,68.514 24.314,62.613 23.042,57.953 22.1,58.078 21.166,58.21 20.9,63.02 21.516,68.847 m 17.856,140.794 c 0.103,-1.946 0,-4.659 -0.324,-7.723 -0.675,-6.367 -2.055,-11.791 -3.084,-12.127 -1.019,-0.342 -1.304,4.467 -0.652,10.75 0.267,2.471 0.626,4.811 1.04,6.768 0.997,0.775 2.012,1.545 3.02,2.332 M 22.241,43.021 C 21.624,37.207 20.377,32.688 19.45,32.898 c -0.918,0.217 -1.175,5.025 -0.573,10.768 0.602,5.762 1.845,10.326 2.779,10.189 0.938,-0.145 1.202,-5.001 0.585,-10.834 M 32.635,158.16 c 1.01,0.215 1.291,-4.633 0.639,-10.826 -0.652,-6.176 -1.991,-11.271 -2.981,-11.424 -0.988,-0.133 -1.262,4.666 -0.625,10.76 0.646,6.115 1.971,11.258 2.967,11.49 M 26.91,120.34 c 0.629,6.025 1.936,11.021 2.918,11.152 0.989,0.123 1.272,-4.728 0.626,-10.832 -0.646,-6.08 -1.959,-11.033 -2.933,-11.084 -0.968,-0.045 -1.242,4.762 -0.611,10.764 m 8.575,64.896 c 1.022,0.328 1.316,-4.529 0.654,-10.82 -0.665,-6.27 -2.022,-11.533 -3.033,-11.771 -1.002,-0.239 -1.288,4.568 -0.637,10.755 0.648,6.209 1.998,11.518 3.016,11.836 M 24.192,94.401 c 0.624,5.935 1.906,10.787 2.871,10.826 0.972,0.027 1.244,-4.827 0.612,-10.836 C 27.038,88.402 25.749,83.6 24.79,83.635 c -0.951,0.046 -1.215,4.852 -0.598,10.766 m 0.878,48.816 c 0.589,5.951 1.912,10.986 2.961,11.238 1.06,0.246 1.435,-4.449 0.83,-10.484 -0.598,-6.016 -1.935,-11.02 -2.979,-11.182 -1.036,-0.168 -1.398,4.494 -0.812,10.428 m 2.568,26 c 0.591,6.033 1.94,11.219 3.006,11.572 1.081,0.344 1.458,-4.334 0.847,-10.453 -0.608,-6.102 -1.967,-11.246 -3.027,-11.518 -1.055,-0.259 -1.423,4.383 -0.826,10.399 m 6.627,36.48 c 0.275,-1.859 0.256,-4.978 -0.108,-8.621 -0.618,-6.187 -1.994,-11.494 -3.074,-11.861 -1.071,-0.367 -1.445,4.265 -0.843,10.365 0.297,3.043 0.787,5.891 1.336,8.041 0.89,0.688 1.79,1.377 2.689,2.076 M 1,180.003 c 5.627,4.348 10.355,8.001 10.355,8.001 -0.488,-1.455 -1.04,-2.453 -1.581,-2.729 -0.405,-0.203 -0.755,0.016 -1.034,0.573 -0.576,-2.241 -1.319,-3.852 -2.049,-4.231 -0.352,-0.176 -0.659,-0.054 -0.924,0.311 C 5.205,179.945 4.515,178.525 3.82,178.16 3.525,177.994 3.245,178.061 3.005,178.291 2.466,176.518 1.809,175.248 1.147,174.893 1.097,174.866 1.048,174.846 1,174.83 Z m 12.77,9.864 c -0.229,-0.363 -0.458,-0.613 -0.687,-0.726 -0.115,-0.061 -0.23,-0.082 -0.335,-0.063 0.338,0.264 0.682,0.524 1.022,0.789 M 1,0 V 2.507 C 1.244,2.814 1.492,2.954 1.738,2.896 2.165,2.792 2.518,2.104 2.768,1.008 3.245,2.473 3.793,3.312 4.313,3.178 4.787,3.054 5.159,2.139 5.389,0.715 5.899,2.523 6.501,3.588 7.055,3.433 7.585,3.283 7.978,2.045 8.161,0.165 8.718,2.443 9.379,3.834 9.976,3.657 10.511,3.495 10.875,2.095 11.025,0 Z m 10.247,0 c 0.568,2.494 1.251,4.032 1.841,3.844 C 13.607,3.675 13.944,2.201 14.055,0 Z m 3.348,0 c 0.573,2.58 1.249,4.176 1.811,3.984 C 16.901,3.812 17.2,2.28 17.272,0 Z M 1,24.734 c 0.38,-0.087 0.699,-0.612 0.956,-1.45 0.475,1.398 1.022,2.217 1.546,2.137 0.445,-0.067 0.802,-0.773 1.063,-1.908 0.5,1.682 1.096,2.68 1.652,2.587 0.498,-0.084 0.879,-1.035 1.116,-2.535 0.532,2.064 1.185,3.323 1.779,3.211 0.562,-0.107 0.965,-1.424 1.145,-3.437 0.576,2.595 1.301,4.236 1.943,4.105 0.647,-0.136 1.051,-2.048 1.13,-4.838 0.621,3.387 1.458,5.654 2.165,5.495 0.797,-0.184 1.174,-3.403 0.971,-7.657 0.643,4.887 1.715,8.494 2.545,8.293 0.921,-0.233 1.178,-5.088 0.574,-10.835 C 18.977,12.174 17.75,7.792 16.837,8.085 16.119,8.323 15.812,11.424 16.02,15.53 15.396,10.904 14.336,7.606 13.487,7.864 12.899,8.045 12.551,9.899 12.494,12.582 11.886,9.435 11.059,7.4 10.345,7.602 9.831,7.751 9.482,9.035 9.319,10.977 8.75,8.596 8.038,7.137 7.396,7.306 6.938,7.43 6.588,8.362 6.383,9.817 5.853,7.945 5.218,6.839 4.628,6.982 4.216,7.084 3.878,7.782 3.653,8.894 3.146,7.384 2.58,6.512 2.031,6.636 1.659,6.721 1.343,7.255 1.108,8.109 1.072,8.017 1.036,7.926 1,7.839 Z m 0,20.35 c 0.019,-0.044 0.037,-0.09 0.055,-0.137 0.474,1.348 1.018,2.155 1.549,2.131 0.416,-0.019 0.767,-0.552 1.034,-1.448 0.496,1.592 1.083,2.562 1.644,2.527 0.467,-0.028 0.845,-0.753 1.103,-1.944 0.528,1.908 1.161,3.09 1.756,3.047 0.526,-0.041 0.931,-1.039 1.158,-2.633 0.56,2.333 1.258,3.818 1.894,3.758 0.598,-0.06 1.015,-1.468 1.188,-3.64 0.605,2.927 1.382,4.859 2.072,4.783 0.697,-0.081 1.116,-2.206 1.157,-5.29 0.636,3.854 1.557,6.546 2.325,6.448 0.99,-0.138 1.341,-4.882 0.768,-10.592 -0.567,-5.694 -1.824,-10.121 -2.804,-9.918 -0.633,0.136 -0.99,2.191 -1.016,5.157 -0.621,-3.605 -1.532,-6.038 -2.309,-5.894 -0.547,0.106 -0.911,1.484 -1.063,3.577 C 10.922,32.307 10.149,30.574 9.458,30.693 8.975,30.778 8.61,31.756 8.408,33.294 7.85,31.159 7.169,29.849 6.536,29.944 6.104,30.013 5.764,30.729 5.527,31.886 5.004,30.153 4.385,29.118 3.797,29.195 3.409,29.249 3.092,29.789 2.843,30.668 2.357,29.23 1.78,28.388 1.229,28.451 1.15,28.461 1.074,28.489 1,28.535 Z m 0,22.687 c 0.208,0.238 0.421,0.372 0.632,0.384 0.388,0.023 0.722,-0.357 0.995,-1.049 0.491,1.525 1.074,2.475 1.638,2.499 0.434,0.022 0.8,-0.512 1.072,-1.439 0.522,1.794 1.145,2.919 1.741,2.941 0.489,0.016 0.882,-0.726 1.144,-1.972 0.555,2.143 1.229,3.517 1.863,3.525 0.554,0.005 0.972,-1.035 1.203,-2.729 0.588,2.612 1.33,4.33 2.009,4.33 0.638,-0.005 1.066,-1.523 1.23,-3.878 0.614,3.289 1.465,5.543 2.205,5.528 0.759,-0.023 1.192,-2.417 1.179,-5.872 0.643,4.385 1.66,7.599 2.496,7.568 1.007,-0.045 1.363,-4.779 0.784,-10.568 -0.574,-5.77 -1.851,-10.335 -2.847,-10.223 -0.689,0.084 -1.065,2.402 -1.033,5.725 -0.637,-4.125 -1.634,-7.05 -2.48,-6.97 -0.582,0.06 -0.97,1.533 -1.102,3.799 -0.616,-3.055 -1.445,-5.083 -2.187,-5.024 -0.51,0.043 -0.884,1.073 -1.089,2.714 C 9.875,54.646 9.141,53.103 8.463,53.144 8.01,53.174 7.657,53.913 7.417,55.127 6.874,53.163 6.208,51.939 5.58,51.967 5.176,51.985 4.843,52.527 4.593,53.434 4.079,51.8 3.467,50.803 2.879,50.82 2.518,50.83 2.208,51.227 1.959,51.907 1.66,51.069 1.333,50.433 1,50.064 Z m 0,82.983 c 0.388,0.86 0.81,1.437 1.229,1.623 0.352,0.143 0.657,0.016 0.929,-0.346 0.532,1.78 1.171,3.014 1.811,3.285 0.398,0.166 0.744,-0.064 1.036,-0.599 0.554,2.013 1.233,3.418 1.902,3.697 0.454,0.186 0.843,-0.18 1.14,-0.953 0.574,2.314 1.301,3.941 2.011,4.219 0.519,0.209 0.954,-0.358 1.243,-1.465 0.598,2.693 1.385,4.617 2.137,4.902 0.602,0.231 1.067,-0.629 1.333,-2.211 0.62,3.201 1.488,5.539 2.295,5.834 0.699,0.266 1.2,-1.092 1.392,-3.388 0.639,3.919 1.625,6.886 2.503,7.201 0.86,0.302 1.372,-2.01 1.375,-5.586 0.628,5.103 1.809,9.256 2.81,9.597 1.123,0.381 1.581,-4.146 1.021,-10.105 -0.564,-5.945 -1.917,-10.984 -3.021,-11.285 -0.792,-0.209 -1.238,2.06 -1.229,5.517 -0.614,-4.859 -1.785,-8.707 -2.794,-8.992 -0.647,-0.181 -1.09,1.147 -1.264,3.367 -0.634,-3.693 -1.608,-6.412 -2.483,-6.675 -0.561,-0.159 -0.979,0.699 -1.219,2.232 -0.614,-3 -1.472,-5.143 -2.275,-5.387 -0.485,-0.152 -0.877,0.424 -1.145,1.502 -0.595,-2.511 -1.372,-4.259 -2.113,-4.504 -0.425,-0.138 -0.783,0.245 -1.057,1.004 C 7.995,141.09 7.279,139.615 6.583,139.377 6.21,139.254 5.885,139.5 5.623,140.029 5.07,138.162 4.408,136.889 3.747,136.66 3.421,136.547 3.131,136.697 2.879,137.063 2.363,135.42 1.725,134.309 1.1,134.078 1.066,134.065 1.033,134.057 1,134.05 Z m 0,-41.147 c 0.336,0.634 0.692,1.032 1.048,1.12 0.367,0.097 0.696,-0.166 0.968,-0.686 0.511,1.656 1.123,2.756 1.729,2.893 0.418,0.101 0.776,-0.278 1.062,-1.002 0.531,1.906 1.193,3.166 1.825,3.314 0.476,0.102 0.865,-0.437 1.153,-1.437 0.559,2.224 1.267,3.714 1.939,3.857 0.544,0.102 0.966,-0.678 1.234,-2.07 0.596,2.646 1.361,4.457 2.076,4.601 0.621,0.117 1.07,-1.052 1.294,-3.002 0.621,3.231 1.479,5.504 2.252,5.647 0.731,0.127 1.206,-1.688 1.31,-4.52 0.642,4.1 1.636,7.133 2.49,7.282 0.974,0.146 1.428,-3.485 1.125,-8.409 0.012,0.125 0.018,0.25 0.035,0.377 0.582,5.871 1.882,10.762 2.915,10.914 1.041,0.149 1.402,-4.564 0.815,-10.515 -0.594,-5.932 -1.908,-10.785 -2.936,-10.854 -0.883,-0.062 -1.272,3.451 -0.975,8.199 -0.555,-5.761 -1.86,-10.472 -2.93,-10.57 -0.67,-0.05 -1.089,1.713 -1.174,4.445 -0.635,-3.857 -1.612,-6.637 -2.471,-6.727 -0.573,-0.059 -0.98,1.098 -1.176,2.985 -0.61,-3.016 -1.459,-5.088 -2.23,-5.179 -0.501,-0.056 -0.887,0.726 -1.13,2.077 C 10.657,99.895 9.906,98.258 9.196,98.158 8.755,98.098 8.392,98.646 8.133,99.628 7.572,97.577 6.885,96.232 6.223,96.134 5.832,96.077 5.499,96.458 5.239,97.17 4.703,95.423 4.066,94.293 3.442,94.191 3.097,94.136 2.791,94.406 2.542,94.924 2.078,93.545 1.539,92.616 1,92.38 Z m 0,20.856 c 0.286,0.045 0.547,-0.109 0.777,-0.428 0.513,1.611 1.119,2.705 1.726,2.906 0.379,0.135 0.717,-0.115 0.999,-0.638 0.531,1.834 1.178,3.08 1.818,3.281 0.434,0.145 0.806,-0.232 1.101,-0.98 0.557,2.107 1.246,3.548 1.917,3.757 0.498,0.153 0.911,-0.4 1.197,-1.453 0.575,2.457 1.325,4.162 2.037,4.371 0.573,0.16 1.012,-0.66 1.282,-2.142 0.601,2.922 1.429,4.98 2.186,5.205 0.664,0.172 1.13,-1.065 1.344,-3.178 0.626,3.565 1.549,6.172 2.374,6.389 0.785,0.213 1.279,-1.807 1.348,-4.957 0.639,4.56 1.722,8.088 2.642,8.326 1.109,0.266 1.557,-4.277 1.003,-10.162 -0.548,-5.867 -1.89,-10.76 -2.979,-10.959 -0.723,-0.127 -1.157,1.855 -1.204,4.9 -0.633,-4.324 -1.7,-7.576 -2.627,-7.76 -0.61,-0.113 -1.035,1.12 -1.219,3.161 -0.627,-3.346 -1.533,-5.725 -2.355,-5.899 -0.529,-0.105 -0.927,0.713 -1.173,2.143 -0.6,-2.721 -1.409,-4.592 -2.164,-4.76 -0.462,-0.102 -0.841,0.453 -1.101,1.477 -0.579,-2.276 -1.312,-3.809 -2.013,-3.979 -0.408,-0.096 -0.749,0.289 -1.019,1.021 -0.542,-1.945 -1.229,-3.246 -1.89,-3.41 -0.357,-0.09 -0.674,0.172 -0.93,0.696 -0.532,-1.688 -1.163,-2.805 -1.787,-2.973 -0.314,-0.082 -0.596,0.084 -0.839,0.451 C 1.307,114.449 1.156,114.07 1,113.739 Z M 1,171.3 c 0.283,0.126 0.546,0.056 0.782,-0.157 0.537,1.744 1.167,2.988 1.81,3.322 0.361,0.183 0.685,0.066 0.959,-0.299 0.548,1.953 1.22,3.344 1.893,3.682 0.416,0.209 0.775,-0.004 1.075,-0.553 0.567,2.201 1.284,3.775 1.987,4.127 0.478,0.234 0.879,-0.125 1.186,-0.932 0.586,2.526 1.357,4.35 2.102,4.711 0.547,0.264 0.993,-0.31 1.29,-1.478 0.612,2.937 1.447,5.091 2.239,5.466 0.637,0.295 1.116,-0.609 1.384,-2.304 0.63,3.494 1.555,6.125 2.408,6.515 0.749,0.342 1.268,-1.125 1.441,-3.644 0.645,4.297 1.697,7.674 2.635,8.09 0.961,0.42 1.493,-2.358 1.383,-6.569 0.364,3.631 1.024,6.953 1.728,9.043 0.678,0.524 1.36,1.051 2.045,1.578 0.54,-1.437 0.682,-5.021 0.267,-9.412 -0.561,-6.017 -1.942,-11.213 -3.066,-11.615 -0.885,-0.316 -1.353,2.44 -1.23,6.541 -0.57,-5.553 -1.872,-10.246 -2.986,-10.664 -0.696,-0.254 -1.154,1.203 -1.309,3.645 -0.643,-4.075 -1.682,-7.194 -2.616,-7.561 -0.59,-0.225 -1.024,0.68 -1.267,2.32 -0.631,-3.287 -1.544,-5.695 -2.389,-6.039 -0.515,-0.193 -0.918,0.385 -1.188,1.522 -0.612,-2.754 -1.427,-4.735 -2.217,-5.049 -0.44,-0.188 -0.816,0.195 -1.095,0.982 -0.584,-2.357 -1.34,-4.027 -2.078,-4.332 -0.385,-0.168 -0.721,0.075 -0.998,0.616 -0.562,-2.051 -1.266,-3.491 -1.961,-3.791 -0.34,-0.143 -0.639,-0.012 -0.895,0.353 C 3.778,157.605 3.114,156.346 2.456,156.049 2.17,155.912 1.905,156 1.665,156.234 1.456,155.594 1.233,155.029 1,154.563 Z M 1,88.588 c 0.197,-0.112 0.378,-0.334 0.54,-0.65 0.49,1.486 1.074,2.427 1.643,2.519 0.402,0.059 0.753,-0.315 1.026,-1.021 0.519,1.71 1.133,2.807 1.732,2.891 0.455,0.062 0.836,-0.473 1.114,-1.437 0.54,2.004 1.204,3.309 1.838,3.386 0.515,0.056 0.921,-0.701 1.19,-2.016 0.572,2.386 1.292,3.972 1.966,4.044 0.587,0.055 1.022,-1.04 1.25,-2.858 0.601,2.913 1.402,4.908 2.127,4.966 0.68,0.056 1.135,-1.59 1.271,-4.157 0.629,3.675 1.55,6.29 2.345,6.346 0.836,0.056 1.285,-2.739 1.184,-6.702 0.627,5.028 1.768,8.922 2.687,8.973 1.025,0.051 1.388,-4.674 0.8,-10.543 -0.583,-5.85 -1.88,-10.555 -2.891,-10.535 -0.761,0.02 -1.142,2.727 -1.035,6.546 -0.625,-4.762 -1.739,-8.337 -2.671,-8.335 -0.624,0.008 -1.017,1.621 -1.137,4.102 -0.629,-3.444 -1.529,-5.827 -2.328,-5.839 -0.54,-0.002 -0.933,1.077 -1.132,2.83 -0.6,-2.702 -1.385,-4.496 -2.108,-4.514 C 9.936,76.571 9.568,77.333 9.324,78.607 8.756,76.403 8.048,74.982 7.379,74.954 6.958,74.937 6.607,75.479 6.356,76.421 5.819,74.583 5.169,73.415 4.543,73.38 4.167,73.356 3.847,73.743 3.591,74.44 3.077,72.884 2.478,71.907 1.89,71.861 1.558,71.833 1.268,72.118 1.02,72.627 1.013,72.609 1.006,72.592 1,72.574 Z"
           style="fill:#639f1e;fill-opacity:1;fill-rule:nonzero;stroke:none"
           id="path3809"
           inkscape:connector-curvature="0" /></g></g></g></svg>