<?xml version="1.0" encoding="utf-8"?>
<!-- Generator: Adobe Illustrator 15.0.0, SVG Export Plug-In . SVG Version: 6.00 Build 0)  -->
<!DOCTYPE svg PUBLIC "-//W3C//DTD SVG 1.1//EN" "http://www.w3.org/Graphics/SVG/1.1/DTD/svg11.dtd">
<svg version="1.1" id="Layer_1" xmlns="http://www.w3.org/2000/svg" xmlns:xlink="http://www.w3.org/1999/xlink" x="0px" y="0px"
	 width="822.047px" height="632.126px" viewBox="0 0 822.047 632.126" enable-background="new 0 0 822.047 632.126"
	 xml:space="preserve">
<rect fill="#831518" width="822.047" height="632.126"/>
<g>
	<path fill-rule="evenodd" clip-rule="evenodd" fill="#610C0D" d="M105.615,21.118c-0.054,7.022,0.109,14.265-0.082,21.151
		c-7.022,0-14.046,0-21.068,0c-0.192-6.887-0.027-14.129-0.082-21.151C91.268,20.98,98.729,20.98,105.615,21.118z"/>
	<path fill-rule="evenodd" clip-rule="evenodd" fill="#610C0D" d="M137.218,21.118c-0.056,7.022,0.109,14.265-0.083,21.151
		c-7.022,0-14.046,0-21.068,0c-0.192-6.887-0.027-14.129-0.082-21.151C122.871,20.98,130.332,20.98,137.218,21.118z"/>
	<path fill-rule="evenodd" clip-rule="evenodd" fill="#610C0D" d="M295.23,21.118c-0.055,7.022,0.109,14.265-0.082,21.151
		c-7.023,0-14.046,0-21.069,0c-0.191-6.887-0.027-14.129-0.081-21.151C280.882,20.98,288.343,20.98,295.23,21.118z"/>
	<path fill-rule="evenodd" clip-rule="evenodd" fill="#610C0D" d="M453.242,21.118c-0.056,7.022,0.109,14.265-0.081,21.151
		c-7.023,0-14.048,0-21.069,0c-0.192-6.887-0.028-14.129-0.083-21.151C438.896,20.98,446.355,20.98,453.242,21.118z"/>
	<path fill-rule="evenodd" clip-rule="evenodd" fill="#610C0D" d="M611.255,21.118c-0.055,7.022,0.109,14.265-0.083,21.151
		c-7.022,0-14.046,0-21.067,0c-0.192-6.887-0.027-14.129-0.083-21.151C596.907,20.98,604.368,20.98,611.255,21.118z"/>
	<path fill-rule="evenodd" clip-rule="evenodd" fill="#610C0D" d="M642.856,21.118c-0.056,7.022,0.109,14.265-0.082,21.151
		c-7.023,0-14.045,0-21.066,0c-0.194-6.887-0.029-14.129-0.084-21.151C628.509,20.98,635.972,20.98,642.856,21.118z"/>
	<path fill-rule="evenodd" clip-rule="evenodd" fill="#610C0D" d="M800.87,21.118c-0.057,7.022,0.109,14.265-0.083,21.151
		c-7.024,0-14.044,0-21.067,0c-0.194-6.887-0.027-14.129-0.084-21.151C786.521,20.98,793.983,20.98,800.87,21.118z"/>
	<path fill-rule="evenodd" clip-rule="evenodd" fill="#C42026" d="M21.259,52.638c7.023,0,14.046,0,21.068,0
		c0,7.051,0,14.101,0,21.151c-7.05,0-14.101,0-21.15,0C21.232,66.766,21.068,59.523,21.259,52.638z"/>
	<path fill-rule="evenodd" clip-rule="evenodd" fill="#C42026" d="M52.862,52.638c7.023,0,14.046,0,21.068,0
		c0,7.051,0,14.101,0,21.151c-7.05,0-14.1,0-21.15,0C52.834,66.766,52.67,59.523,52.862,52.638z"/>
	<path fill-rule="evenodd" clip-rule="evenodd" fill="#C42026" d="M116.067,52.638c7.022,0,14.046,0,21.068,0
		c0,7.051,0,14.101,0,21.151c-7.051,0-14.101,0-21.15,0C116.04,66.766,115.875,59.523,116.067,52.638z"/>
	<path fill-rule="evenodd" clip-rule="evenodd" fill="#610C0D" d="M168.82,52.721c-0.055,7.022,0.11,14.265-0.082,21.15
		c-7.022,0-14.045,0-21.068,0c-0.191-6.886-0.027-14.128-0.082-21.15C154.473,52.584,161.934,52.584,168.82,52.721z"/>
	<path fill-rule="evenodd" clip-rule="evenodd" fill="#610C0D" d="M263.627,52.721c-0.055,7.022,0.109,14.265-0.082,21.15
		c-7.023,0-14.046,0-21.068,0c-0.191-6.886-0.027-14.128-0.083-21.15C249.28,52.584,256.741,52.584,263.627,52.721z"/>
	<path fill-rule="evenodd" clip-rule="evenodd" fill="#C42026" d="M305.681,52.638c7.023,0,14.046,0,21.069,0
		c0,7.051,0,14.101,0,21.151c-7.051,0-14.101,0-21.151,0C305.655,66.766,305.49,59.523,305.681,52.638z"/>
	<path fill-rule="evenodd" clip-rule="evenodd" fill="#C42026" d="M337.284,52.638c7.023,0,14.046,0,21.069,0
		c0,7.051,0,14.101,0,21.151c-7.051,0-14.102,0-21.151,0C337.257,66.766,337.092,59.523,337.284,52.638z"/>
	<path fill-rule="evenodd" clip-rule="evenodd" fill="#C42026" d="M400.489,52.638c7.023,0,14.045,0,21.069,0
		c0,7.051,0,14.101,0,21.151c-7.051,0-14.101,0-21.151,0C400.461,66.766,400.297,59.523,400.489,52.638z"/>
	<path fill-rule="evenodd" clip-rule="evenodd" fill="#C42026" d="M463.694,52.638c7.022,0,14.044,0,21.068,0
		c0,7.051,0,14.101,0,21.151c-7.05,0-14.1,0-21.149,0C463.665,66.766,463.502,59.523,463.694,52.638z"/>
	<path fill-rule="evenodd" clip-rule="evenodd" fill="#C42026" d="M495.297,52.638c7.022,0,14.045,0,21.067,0
		c0,7.051,0,14.101,0,21.151c-7.049,0-14.1,0-21.15,0C495.269,66.766,495.104,59.523,495.297,52.638z"/>
	<path fill-rule="evenodd" clip-rule="evenodd" fill="#C42026" d="M526.899,52.638c7.022,0,14.045,0,21.068,0
		c0,7.051,0,14.101,0,21.151c-7.051,0-14.101,0-21.15,0C526.871,66.766,526.708,59.523,526.899,52.638z"/>
	<path fill-rule="evenodd" clip-rule="evenodd" fill="#C42026" d="M558.501,52.638c7.023,0,14.046,0,21.068,0
		c0,7.051,0,14.101,0,21.151c-7.051,0-14.1,0-21.151,0C558.474,66.766,558.31,59.523,558.501,52.638z"/>
	<path fill-rule="evenodd" clip-rule="evenodd" fill="#C42026" d="M621.708,52.638c7.021,0,14.043,0,21.066,0
		c0,7.051,0,14.101,0,21.151c-7.051,0-14.1,0-21.15,0C621.679,66.766,621.514,59.523,621.708,52.638z"/>
	<path fill-rule="evenodd" clip-rule="evenodd" fill="#610C0D" d="M674.458,52.721c-0.054,7.022,0.111,14.265-0.08,21.15
		c-7.023,0-14.047,0-21.07,0c-0.191-6.886-0.025-14.128-0.082-21.15C660.112,52.584,667.573,52.584,674.458,52.721z"/>
	<path fill-rule="evenodd" clip-rule="evenodd" fill="#610C0D" d="M769.267,52.721c-0.055,7.022,0.111,14.265-0.082,21.15
		c-7.022,0-14.046,0-21.068,0c-0.191-6.886-0.028-14.128-0.082-21.15C754.919,52.584,762.38,52.584,769.267,52.721z"/>
	<path fill-rule="evenodd" clip-rule="evenodd" fill="#C42026" d="M52.862,84.241c7.023,0,14.046,0,21.068,0
		c0,7.05,0,14.101,0,21.15c-7.05,0-14.1,0-21.15,0C52.834,98.368,52.67,91.127,52.862,84.241z"/>
	<path fill-rule="evenodd" clip-rule="evenodd" fill="#610C0D" d="M105.615,84.323c-0.054,7.023,0.109,14.265-0.082,21.15
		c-7.022,0-14.046,0-21.068,0c-0.192-6.886-0.027-14.127-0.082-21.15C91.268,84.187,98.729,84.187,105.615,84.323z"/>
	<path fill-rule="evenodd" clip-rule="evenodd" fill="#C42026" d="M116.067,84.241c7.022,0,14.046,0,21.068,0
		c0,7.05,0,14.101,0,21.15c-7.051,0-14.101,0-21.15,0C116.04,98.368,115.875,91.127,116.067,84.241z"/>
	<path fill-rule="evenodd" clip-rule="evenodd" fill="#610C0D" d="M168.82,84.323c-0.055,7.023,0.11,14.265-0.082,21.15
		c-7.022,0-14.045,0-21.068,0c-0.191-6.886-0.027-14.127-0.082-21.15C154.473,84.187,161.934,84.187,168.82,84.323z"/>
	<path fill-rule="evenodd" clip-rule="evenodd" fill="#C42026" d="M179.272,84.241c7.022,0,14.046,0,21.068,0
		c0,7.05,0,14.101,0,21.15c-7.051,0-14.101,0-21.15,0C179.244,98.368,179.08,91.127,179.272,84.241z"/>
	<path fill-rule="evenodd" clip-rule="evenodd" fill="#C42026" d="M210.875,84.241c7.022,0,14.046,0,21.068,0
		c0,7.05,0,14.101,0,21.15c-7.051,0-14.102,0-21.151,0C210.846,98.368,210.683,91.127,210.875,84.241z"/>
	<path fill-rule="evenodd" clip-rule="evenodd" fill="#610C0D" d="M263.627,84.323c-0.055,7.023,0.109,14.265-0.082,21.15
		c-7.023,0-14.046,0-21.068,0c-0.191-6.886-0.027-14.127-0.083-21.15C249.28,84.187,256.741,84.187,263.627,84.323z"/>
	<path fill-rule="evenodd" clip-rule="evenodd" fill="#C42026" d="M337.284,84.241c7.023,0,14.046,0,21.069,0
		c0,7.05,0,14.101,0,21.15c-7.051,0-14.102,0-21.151,0C337.257,98.368,337.092,91.127,337.284,84.241z"/>
	<path fill-rule="evenodd" clip-rule="evenodd" fill="#610C0D" d="M390.037,84.323c-0.055,7.023,0.11,14.265-0.081,21.15
		c-7.023,0-14.046,0-21.068,0c-0.192-6.886-0.028-14.127-0.083-21.15C375.69,84.187,383.151,84.187,390.037,84.323z"/>
	<path fill-rule="evenodd" clip-rule="evenodd" fill="#C42026" d="M400.489,84.241c7.023,0,14.045,0,21.069,0
		c0,7.05,0,14.101,0,21.15c-7.051,0-14.101,0-21.151,0C400.461,98.368,400.297,91.127,400.489,84.241z"/>
	<path fill-rule="evenodd" clip-rule="evenodd" fill="#C42026" d="M463.694,84.241c7.022,0,14.044,0,21.068,0
		c0,7.05,0,14.101,0,21.15c-7.05,0-14.1,0-21.149,0C463.665,98.368,463.502,91.127,463.694,84.241z"/>
	<path fill-rule="evenodd" clip-rule="evenodd" fill="#C42026" d="M495.297,84.241c7.022,0,14.045,0,21.067,0
		c0,7.05,0,14.101,0,21.15c-7.049,0-14.1,0-21.15,0C495.269,98.368,495.104,91.127,495.297,84.241z"/>
	<path fill-rule="evenodd" clip-rule="evenodd" fill="#C42026" d="M558.501,84.241c7.023,0,14.046,0,21.068,0
		c0,7.05,0,14.101,0,21.15c-7.051,0-14.1,0-21.151,0C558.474,98.368,558.31,91.127,558.501,84.241z"/>
	<path fill-rule="evenodd" clip-rule="evenodd" fill="#610C0D" d="M611.255,84.323c-0.055,7.023,0.109,14.265-0.083,21.15
		c-7.022,0-14.046,0-21.067,0c-0.192-6.886-0.027-14.127-0.083-21.15C596.907,84.187,604.368,84.187,611.255,84.323z"/>
	<path fill-rule="evenodd" clip-rule="evenodd" fill="#C42026" d="M621.708,84.241c7.021,0,14.043,0,21.066,0
		c0,7.05,0,14.101,0,21.15c-7.051,0-14.1,0-21.15,0C621.679,98.368,621.514,91.127,621.708,84.241z"/>
	<path fill-rule="evenodd" clip-rule="evenodd" fill="#610C0D" d="M674.458,84.323c-0.054,7.023,0.111,14.265-0.08,21.15
		c-7.023,0-14.047,0-21.07,0c-0.191-6.886-0.025-14.127-0.082-21.15C660.112,84.187,667.573,84.187,674.458,84.323z"/>
	<path fill-rule="evenodd" clip-rule="evenodd" fill="#C42026" d="M684.912,84.241c7.021,0,14.044,0,21.067,0
		c0,7.05,0,14.101,0,21.15c-7.05,0-14.1,0-21.149,0C684.884,98.368,684.72,91.127,684.912,84.241z"/>
	<path fill-rule="evenodd" clip-rule="evenodd" fill="#C42026" d="M716.513,84.241c7.024,0,14.046,0,21.07,0
		c0,7.05,0,14.101,0,21.15c-7.051,0-14.102,0-21.152,0C716.487,98.368,716.322,91.127,716.513,84.241z"/>
	<path fill-rule="evenodd" clip-rule="evenodd" fill="#610C0D" d="M769.267,84.323c-0.055,7.023,0.111,14.265-0.082,21.15
		c-7.022,0-14.046,0-21.068,0c-0.191-6.886-0.028-14.127-0.082-21.15C754.919,84.187,762.38,84.187,769.267,84.323z"/>
	<path fill-rule="evenodd" clip-rule="evenodd" fill="#610C0D" d="M42.411,115.926c-0.055,7.022,0.109,14.265-0.083,21.15
		c-7.022,0-14.045,0-21.068,0c-0.191-6.886-0.027-14.128-0.082-21.15C28.063,115.788,35.525,115.788,42.411,115.926z"/>
	<path fill-rule="evenodd" clip-rule="evenodd" fill="#C42026" d="M52.862,115.844c7.023,0,14.046,0,21.068,0c0,7.05,0,14.1,0,21.15
		c-7.05,0-14.1,0-21.15,0C52.834,129.971,52.67,122.729,52.862,115.844z"/>
	<path fill-rule="evenodd" clip-rule="evenodd" fill="#610C0D" d="M105.615,115.926c-0.054,7.022,0.109,14.265-0.082,21.15
		c-7.022,0-14.046,0-21.068,0c-0.192-6.886-0.027-14.128-0.082-21.15C91.268,115.788,98.729,115.788,105.615,115.926z"/>
	<path fill-rule="evenodd" clip-rule="evenodd" fill="#610C0D" d="M168.82,115.926c-0.055,7.022,0.11,14.265-0.082,21.15
		c-7.022,0-14.045,0-21.068,0c-0.191-6.886-0.027-14.128-0.082-21.15C154.473,115.788,161.934,115.788,168.82,115.926z"/>
	<path fill-rule="evenodd" clip-rule="evenodd" fill="#C42026" d="M179.272,115.844c7.022,0,14.046,0,21.068,0
		c0,7.05,0,14.1,0,21.15c-7.051,0-14.101,0-21.15,0C179.244,129.971,179.08,122.729,179.272,115.844z"/>
	<path fill-rule="evenodd" clip-rule="evenodd" fill="#C42026" d="M210.875,115.844c7.022,0,14.046,0,21.068,0
		c0,7.05,0,14.1,0,21.15c-7.051,0-14.102,0-21.151,0C210.846,129.971,210.683,122.729,210.875,115.844z"/>
	<path fill-rule="evenodd" clip-rule="evenodd" fill="#610C0D" d="M263.627,115.926c-0.055,7.022,0.109,14.265-0.082,21.15
		c-7.023,0-14.046,0-21.068,0c-0.191-6.886-0.027-14.128-0.083-21.15C249.28,115.788,256.741,115.788,263.627,115.926z"/>
	<path fill-rule="evenodd" clip-rule="evenodd" fill="#C42026" d="M337.284,115.844c7.023,0,14.046,0,21.069,0
		c0,7.05,0,14.1,0,21.15c-7.051,0-14.102,0-21.151,0C337.257,129.971,337.092,122.729,337.284,115.844z"/>
	<path fill-rule="evenodd" clip-rule="evenodd" fill="#610C0D" d="M390.037,115.926c-0.055,7.022,0.11,14.265-0.081,21.15
		c-7.023,0-14.046,0-21.068,0c-0.192-6.886-0.028-14.128-0.083-21.15C375.69,115.788,383.151,115.788,390.037,115.926z"/>
	<path fill-rule="evenodd" clip-rule="evenodd" fill="#C42026" d="M463.694,115.844c7.022,0,14.044,0,21.068,0
		c0,7.05,0,14.1,0,21.15c-7.05,0-14.1,0-21.149,0C463.665,129.971,463.502,122.729,463.694,115.844z"/>
	<path fill-rule="evenodd" clip-rule="evenodd" fill="#610C0D" d="M548.05,115.926c-0.054,7.022,0.109,14.265-0.082,21.15
		c-7.023,0-14.046,0-21.068,0c-0.191-6.886-0.028-14.128-0.082-21.15C533.702,115.788,541.163,115.788,548.05,115.926z"/>
	<path fill-rule="evenodd" clip-rule="evenodd" fill="#C42026" d="M558.501,115.844c7.023,0,14.046,0,21.068,0
		c0,7.05,0,14.1,0,21.15c-7.051,0-14.1,0-21.151,0C558.474,129.971,558.31,122.729,558.501,115.844z"/>
	<path fill-rule="evenodd" clip-rule="evenodd" fill="#610C0D" d="M611.255,115.926c-0.055,7.022,0.109,14.265-0.083,21.15
		c-7.022,0-14.046,0-21.067,0c-0.192-6.886-0.027-14.128-0.083-21.15C596.907,115.788,604.368,115.788,611.255,115.926z"/>
	<path fill-rule="evenodd" clip-rule="evenodd" fill="#610C0D" d="M674.458,115.926c-0.054,7.022,0.111,14.265-0.08,21.15
		c-7.023,0-14.047,0-21.07,0c-0.191-6.886-0.025-14.128-0.082-21.15C660.112,115.788,667.573,115.788,674.458,115.926z"/>
	<path fill-rule="evenodd" clip-rule="evenodd" fill="#C42026" d="M684.912,115.844c7.021,0,14.044,0,21.067,0
		c0,7.05,0,14.1,0,21.15c-7.05,0-14.1,0-21.149,0C684.884,129.971,684.72,122.729,684.912,115.844z"/>
	<path fill-rule="evenodd" clip-rule="evenodd" fill="#C42026" d="M716.513,115.844c7.024,0,14.046,0,21.07,0c0,7.05,0,14.1,0,21.15
		c-7.051,0-14.102,0-21.152,0C716.487,129.971,716.322,122.729,716.513,115.844z"/>
	<path fill-rule="evenodd" clip-rule="evenodd" fill="#610C0D" d="M769.267,115.926c-0.055,7.022,0.111,14.265-0.082,21.15
		c-7.022,0-14.046,0-21.068,0c-0.191-6.886-0.028-14.128-0.082-21.15C754.919,115.788,762.38,115.788,769.267,115.926z"/>
	<path fill-rule="evenodd" clip-rule="evenodd" fill="#C42026" d="M21.259,147.445c7.023,0,14.046,0,21.068,0
		c0,7.051,0,14.102,0,21.151c-7.05,0-14.101,0-21.15,0C21.232,161.574,21.068,154.331,21.259,147.445z"/>
	<path fill-rule="evenodd" clip-rule="evenodd" fill="#C42026" d="M52.862,147.445c7.023,0,14.046,0,21.068,0
		c0,7.051,0,14.102,0,21.151c-7.05,0-14.1,0-21.15,0C52.834,161.574,52.67,154.331,52.862,147.445z"/>
	<path fill-rule="evenodd" clip-rule="evenodd" fill="#C42026" d="M84.464,147.445c7.022,0,14.046,0,21.068,0
		c0,7.051,0,14.102,0,21.151c-7.05,0-14.1,0-21.15,0C84.437,161.574,84.272,154.331,84.464,147.445z"/>
	<path fill-rule="evenodd" clip-rule="evenodd" fill="#C42026" d="M116.067,147.445c7.022,0,14.046,0,21.068,0
		c0,7.051,0,14.102,0,21.151c-7.051,0-14.101,0-21.15,0C116.04,161.574,115.875,154.331,116.067,147.445z"/>
	<path fill-rule="evenodd" clip-rule="evenodd" fill="#610C0D" d="M200.422,147.527c-0.055,7.023,0.109,14.266-0.082,21.151
		c-7.022,0-14.046,0-21.068,0c-0.192-6.886-0.028-14.128-0.082-21.151C186.076,147.391,193.537,147.391,200.422,147.527z"/>
	<path fill-rule="evenodd" clip-rule="evenodd" fill="#C42026" d="M274.079,147.445c7.023,0,14.046,0,21.069,0
		c0,7.051,0,14.102,0,21.151c-7.051,0-14.101,0-21.15,0C274.051,161.574,273.887,154.331,274.079,147.445z"/>
	<path fill-rule="evenodd" clip-rule="evenodd" fill="#C42026" d="M305.681,147.445c7.023,0,14.046,0,21.069,0
		c0,7.051,0,14.102,0,21.151c-7.051,0-14.101,0-21.151,0C305.655,161.574,305.49,154.331,305.681,147.445z"/>
	<path fill-rule="evenodd" clip-rule="evenodd" fill="#C42026" d="M368.887,147.445c7.022,0,14.045,0,21.068,0
		c0,7.051,0,14.102,0,21.151c-7.051,0-14.101,0-21.151,0C368.859,161.574,368.695,154.331,368.887,147.445z"/>
	<path fill-rule="evenodd" clip-rule="evenodd" fill="#C42026" d="M400.489,147.445c7.023,0,14.045,0,21.069,0
		c0,7.051,0,14.102,0,21.151c-7.051,0-14.101,0-21.151,0C400.461,161.574,400.297,154.331,400.489,147.445z"/>
	<path fill-rule="evenodd" clip-rule="evenodd" fill="#C42026" d="M432.092,147.445c7.021,0,14.046,0,21.069,0
		c0,7.051,0,14.102,0,21.151c-7.052,0-14.103,0-21.152,0C432.063,161.574,431.899,154.331,432.092,147.445z"/>
	<path fill-rule="evenodd" clip-rule="evenodd" fill="#C42026" d="M463.694,147.445c7.022,0,14.044,0,21.068,0
		c0,7.051,0,14.102,0,21.151c-7.05,0-14.1,0-21.149,0C463.665,161.574,463.502,154.331,463.694,147.445z"/>
	<path fill-rule="evenodd" clip-rule="evenodd" fill="#C42026" d="M495.297,147.445c7.022,0,14.045,0,21.067,0
		c0,7.051,0,14.102,0,21.151c-7.049,0-14.1,0-21.15,0C495.269,161.574,495.104,154.331,495.297,147.445z"/>
	<path fill-rule="evenodd" clip-rule="evenodd" fill="#C42026" d="M526.899,147.445c7.022,0,14.045,0,21.068,0
		c0,7.051,0,14.102,0,21.151c-7.051,0-14.101,0-21.15,0C526.871,161.574,526.708,154.331,526.899,147.445z"/>
	<path fill-rule="evenodd" clip-rule="evenodd" fill="#C42026" d="M558.501,147.445c7.023,0,14.046,0,21.068,0
		c0,7.051,0,14.102,0,21.151c-7.051,0-14.1,0-21.151,0C558.474,161.574,558.31,154.331,558.501,147.445z"/>
	<path fill-rule="evenodd" clip-rule="evenodd" fill="#C42026" d="M590.104,147.445c7.021,0,14.045,0,21.067,0
		c0,7.051,0,14.102,0,21.151c-7.05,0-14.101,0-21.15,0C590.077,161.574,589.912,154.331,590.104,147.445z"/>
	<path fill-rule="evenodd" clip-rule="evenodd" fill="#C42026" d="M621.708,147.445c7.021,0,14.043,0,21.066,0
		c0,7.051,0,14.102,0,21.151c-7.051,0-14.1,0-21.15,0C621.679,161.574,621.514,154.331,621.708,147.445z"/>
	<path fill-rule="evenodd" clip-rule="evenodd" fill="#610C0D" d="M706.062,147.527c-0.055,7.023,0.11,14.266-0.082,21.151
		c-7.023,0-14.046,0-21.067,0c-0.192-6.886-0.028-14.128-0.082-21.151C691.716,147.391,699.175,147.391,706.062,147.527z"/>
	<path fill-rule="evenodd" clip-rule="evenodd" fill="#C42026" d="M779.72,147.445c7.023,0,14.043,0,21.067,0
		c0,7.051,0,14.102,0,21.151c-7.05,0-14.101,0-21.151,0C779.692,161.574,779.525,154.331,779.72,147.445z"/>
	<path fill-rule="evenodd" clip-rule="evenodd" fill="#C42026" d="M21.259,179.048c7.023,0,14.046,0,21.068,0c0,7.05,0,14.1,0,21.15
		c-7.05,0-14.101,0-21.15,0C21.232,193.176,21.068,185.935,21.259,179.048z"/>
	<path fill-rule="evenodd" clip-rule="evenodd" fill="#610C0D" d="M105.615,179.131c-0.054,7.022,0.109,14.265-0.082,21.15
		c-7.022,0-14.046,0-21.068,0c-0.192-6.886-0.027-14.128-0.082-21.15C91.268,178.993,98.729,178.993,105.615,179.131z"/>
	<path fill-rule="evenodd" clip-rule="evenodd" fill="#610C0D" d="M137.218,179.131c-0.056,7.022,0.109,14.265-0.083,21.15
		c-7.022,0-14.046,0-21.068,0c-0.192-6.886-0.027-14.128-0.082-21.15C122.871,178.993,130.332,178.993,137.218,179.131z"/>
	<path fill-rule="evenodd" clip-rule="evenodd" fill="#C42026" d="M147.669,179.048c7.023,0,14.046,0,21.068,0
		c0,7.05,0,14.1,0,21.15c-7.051,0-14.101,0-21.15,0C147.642,193.176,147.478,185.935,147.669,179.048z"/>
	<path fill-rule="evenodd" clip-rule="evenodd" fill="#610C0D" d="M232.025,179.131c-0.055,7.022,0.109,14.265-0.082,21.15
		c-7.022,0-14.046,0-21.068,0c-0.191-6.886-0.028-14.128-0.083-21.15C217.678,178.993,225.139,178.993,232.025,179.131z"/>
	<path fill-rule="evenodd" clip-rule="evenodd" fill="#610C0D" d="M295.23,179.131c-0.055,7.022,0.109,14.265-0.082,21.15
		c-7.023,0-14.046,0-21.069,0c-0.191-6.886-0.027-14.128-0.081-21.15C280.882,178.993,288.343,178.993,295.23,179.131z"/>
	<path fill-rule="evenodd" clip-rule="evenodd" fill="#610C0D" d="M326.833,179.131c-0.056,7.022,0.109,14.265-0.082,21.15
		c-7.023,0-14.046,0-21.069,0c-0.191-6.886-0.026-14.128-0.082-21.15C312.485,178.993,319.947,178.993,326.833,179.131z"/>
	<path fill-rule="evenodd" clip-rule="evenodd" fill="#C42026" d="M368.887,179.048c7.022,0,14.045,0,21.068,0
		c0,7.05,0,14.1,0,21.15c-7.051,0-14.101,0-21.151,0C368.859,193.176,368.695,185.935,368.887,179.048z"/>
	<path fill-rule="evenodd" clip-rule="evenodd" fill="#610C0D" d="M453.242,179.131c-0.056,7.022,0.109,14.265-0.081,21.15
		c-7.023,0-14.048,0-21.069,0c-0.192-6.886-0.028-14.128-0.083-21.15C438.896,178.993,446.355,178.993,453.242,179.131z"/>
	<path fill-rule="evenodd" clip-rule="evenodd" fill="#C42026" d="M495.297,179.048c7.022,0,14.045,0,21.067,0
		c0,7.05,0,14.1,0,21.15c-7.049,0-14.1,0-21.15,0C495.269,193.176,495.104,185.935,495.297,179.048z"/>
	<path fill-rule="evenodd" clip-rule="evenodd" fill="#C42026" d="M526.899,179.048c7.022,0,14.045,0,21.068,0
		c0,7.05,0,14.1,0,21.15c-7.051,0-14.101,0-21.15,0C526.871,193.176,526.708,185.935,526.899,179.048z"/>
	<path fill-rule="evenodd" clip-rule="evenodd" fill="#610C0D" d="M611.255,179.131c-0.055,7.022,0.109,14.265-0.083,21.15
		c-7.022,0-14.046,0-21.067,0c-0.192-6.886-0.027-14.128-0.083-21.15C596.907,178.993,604.368,178.993,611.255,179.131z"/>
	<path fill-rule="evenodd" clip-rule="evenodd" fill="#610C0D" d="M642.856,179.131c-0.056,7.022,0.109,14.265-0.082,21.15
		c-7.023,0-14.045,0-21.066,0c-0.194-6.886-0.029-14.128-0.084-21.15C628.509,178.993,635.972,178.993,642.856,179.131z"/>
	<path fill-rule="evenodd" clip-rule="evenodd" fill="#C42026" d="M653.308,179.048c7.023,0,14.047,0,21.07,0c0,7.05,0,14.1,0,21.15
		c-7.051,0-14.102,0-21.152,0C653.282,193.176,653.116,185.935,653.308,179.048z"/>
	<path fill-rule="evenodd" clip-rule="evenodd" fill="#610C0D" d="M737.664,179.131c-0.055,7.022,0.108,14.265-0.081,21.15
		c-7.024,0-14.046,0-21.07,0c-0.19-6.886-0.025-14.128-0.082-21.15C723.317,178.993,730.778,178.993,737.664,179.131z"/>
	<path fill-rule="evenodd" clip-rule="evenodd" fill="#610C0D" d="M800.87,179.131c-0.057,7.022,0.109,14.265-0.083,21.15
		c-7.024,0-14.044,0-21.067,0c-0.194-6.886-0.027-14.128-0.084-21.15C786.521,178.993,793.983,178.993,800.87,179.131z"/>
	<path fill-rule="evenodd" clip-rule="evenodd" fill="#610C0D" d="M42.411,210.733c-0.055,7.022,0.109,14.265-0.083,21.15
		c-7.022,0-14.045,0-21.068,0c-0.191-6.886-0.027-14.128-0.082-21.15C28.063,210.597,35.525,210.597,42.411,210.733z"/>
	<path fill-rule="evenodd" clip-rule="evenodd" fill="#C42026" d="M52.862,210.651c7.023,0,14.046,0,21.068,0
		c0,7.05,0,14.101,0,21.15c-7.05,0-14.1,0-21.15,0C52.834,224.778,52.67,217.536,52.862,210.651z"/>
	<path fill-rule="evenodd" clip-rule="evenodd" fill="#C42026" d="M147.669,210.651c7.023,0,14.046,0,21.068,0
		c0,7.05,0,14.101,0,21.15c-7.051,0-14.101,0-21.15,0C147.642,224.778,147.478,217.536,147.669,210.651z"/>
	<path fill-rule="evenodd" clip-rule="evenodd" fill="#610C0D" d="M200.422,210.733c-0.055,7.022,0.109,14.265-0.082,21.15
		c-7.022,0-14.046,0-21.068,0c-0.192-6.886-0.028-14.128-0.082-21.15C186.076,210.597,193.537,210.597,200.422,210.733z"/>
	<path fill-rule="evenodd" clip-rule="evenodd" fill="#610C0D" d="M295.23,210.733c-0.055,7.022,0.109,14.265-0.082,21.15
		c-7.023,0-14.046,0-21.069,0c-0.191-6.886-0.027-14.128-0.081-21.15C280.882,210.597,288.343,210.597,295.23,210.733z"/>
	<path fill-rule="evenodd" clip-rule="evenodd" fill="#C42026" d="M305.681,210.651c7.023,0,14.046,0,21.069,0
		c0,7.05,0,14.101,0,21.15c-7.051,0-14.101,0-21.151,0C305.655,224.778,305.49,217.536,305.681,210.651z"/>
	<path fill-rule="evenodd" clip-rule="evenodd" fill="#C42026" d="M400.489,210.651c7.023,0,14.045,0,21.069,0
		c0,7.05,0,14.101,0,21.15c-7.051,0-14.101,0-21.151,0C400.461,224.778,400.297,217.536,400.489,210.651z"/>
	<path fill-rule="evenodd" clip-rule="evenodd" fill="#610C0D" d="M453.242,210.733c-0.056,7.022,0.109,14.265-0.081,21.15
		c-7.023,0-14.048,0-21.069,0c-0.192-6.886-0.028-14.128-0.083-21.15C438.896,210.597,446.355,210.597,453.242,210.733z"/>
	<path fill-rule="evenodd" clip-rule="evenodd" fill="#610C0D" d="M548.05,210.733c-0.054,7.022,0.109,14.265-0.082,21.15
		c-7.023,0-14.046,0-21.068,0c-0.191-6.886-0.028-14.128-0.082-21.15C533.702,210.597,541.163,210.597,548.05,210.733z"/>
	<path fill-rule="evenodd" clip-rule="evenodd" fill="#C42026" d="M558.501,210.651c7.023,0,14.046,0,21.068,0
		c0,7.05,0,14.101,0,21.15c-7.051,0-14.1,0-21.151,0C558.474,224.778,558.31,217.536,558.501,210.651z"/>
	<path fill-rule="evenodd" clip-rule="evenodd" fill="#C42026" d="M653.308,210.651c7.023,0,14.047,0,21.07,0
		c0,7.05,0,14.101,0,21.15c-7.051,0-14.102,0-21.152,0C653.282,224.778,653.116,217.536,653.308,210.651z"/>
	<path fill-rule="evenodd" clip-rule="evenodd" fill="#610C0D" d="M706.062,210.733c-0.055,7.022,0.11,14.265-0.082,21.15
		c-7.023,0-14.046,0-21.067,0c-0.192-6.886-0.028-14.128-0.082-21.15C691.716,210.597,699.175,210.597,706.062,210.733z"/>
	<path fill-rule="evenodd" clip-rule="evenodd" fill="#610C0D" d="M800.87,210.733c-0.057,7.022,0.109,14.265-0.083,21.15
		c-7.024,0-14.044,0-21.067,0c-0.194-6.886-0.027-14.128-0.084-21.15C786.521,210.597,793.983,210.597,800.87,210.733z"/>
	<path fill-rule="evenodd" clip-rule="evenodd" fill="#C42026" d="M52.862,242.254c7.023,0,14.046,0,21.068,0c0,7.05,0,14.1,0,21.15
		c-7.05,0-14.1,0-21.15,0C52.834,256.382,52.67,249.139,52.862,242.254z"/>
	<path fill-rule="evenodd" clip-rule="evenodd" fill="#610C0D" d="M105.615,242.335c-0.054,7.023,0.109,14.265-0.082,21.151
		c-7.022,0-14.046,0-21.068,0c-0.192-6.887-0.027-14.128-0.082-21.151C91.268,242.198,98.729,242.198,105.615,242.335z"/>
	<path fill-rule="evenodd" clip-rule="evenodd" fill="#610C0D" d="M137.218,242.335c-0.056,7.023,0.109,14.265-0.083,21.151
		c-7.022,0-14.046,0-21.068,0c-0.192-6.887-0.027-14.128-0.082-21.151C122.871,242.198,130.332,242.198,137.218,242.335z"/>
	<path fill-rule="evenodd" clip-rule="evenodd" fill="#C42026" d="M179.272,242.254c7.022,0,14.046,0,21.068,0
		c0,7.05,0,14.1,0,21.15c-7.051,0-14.101,0-21.15,0C179.244,256.382,179.08,249.139,179.272,242.254z"/>
	<path fill-rule="evenodd" clip-rule="evenodd" fill="#C42026" d="M210.875,242.254c7.022,0,14.046,0,21.068,0
		c0,7.05,0,14.1,0,21.15c-7.051,0-14.102,0-21.151,0C210.846,256.382,210.683,249.139,210.875,242.254z"/>
	<path fill-rule="evenodd" clip-rule="evenodd" fill="#610C0D" d="M295.23,242.335c-0.055,7.023,0.109,14.265-0.082,21.151
		c-7.023,0-14.046,0-21.069,0c-0.191-6.887-0.027-14.128-0.081-21.151C280.882,242.198,288.343,242.198,295.23,242.335z"/>
	<path fill-rule="evenodd" clip-rule="evenodd" fill="#C42026" d="M337.284,242.254c7.023,0,14.046,0,21.069,0
		c0,7.05,0,14.1,0,21.15c-7.051,0-14.102,0-21.151,0C337.257,256.382,337.092,249.139,337.284,242.254z"/>
	<path fill-rule="evenodd" clip-rule="evenodd" fill="#610C0D" d="M421.64,242.335c-0.056,7.023,0.109,14.265-0.082,21.151
		c-7.023,0-14.045,0-21.069,0c-0.191-6.887-0.027-14.128-0.082-21.151C407.292,242.198,414.755,242.198,421.64,242.335z"/>
	<path fill-rule="evenodd" clip-rule="evenodd" fill="#610C0D" d="M453.242,242.335c-0.056,7.023,0.109,14.265-0.081,21.151
		c-7.023,0-14.048,0-21.069,0c-0.192-6.887-0.028-14.128-0.083-21.151C438.896,242.198,446.355,242.198,453.242,242.335z"/>
	<path fill-rule="evenodd" clip-rule="evenodd" fill="#610C0D" d="M516.446,242.335c-0.054,7.023,0.109,14.265-0.082,21.151
		c-7.022,0-14.045,0-21.067,0c-0.192-6.887-0.028-14.128-0.083-21.151C502.101,242.198,509.562,242.198,516.446,242.335z"/>
	<path fill-rule="evenodd" clip-rule="evenodd" fill="#C42026" d="M558.501,242.254c7.023,0,14.046,0,21.068,0
		c0,7.05,0,14.1,0,21.15c-7.051,0-14.1,0-21.151,0C558.474,256.382,558.31,249.139,558.501,242.254z"/>
	<path fill-rule="evenodd" clip-rule="evenodd" fill="#610C0D" d="M611.255,242.335c-0.055,7.023,0.109,14.265-0.083,21.151
		c-7.022,0-14.046,0-21.067,0c-0.192-6.887-0.027-14.128-0.083-21.151C596.907,242.198,604.368,242.198,611.255,242.335z"/>
	<path fill-rule="evenodd" clip-rule="evenodd" fill="#610C0D" d="M642.856,242.335c-0.056,7.023,0.109,14.265-0.082,21.151
		c-7.023,0-14.045,0-21.066,0c-0.194-6.887-0.029-14.128-0.084-21.151C628.509,242.198,635.972,242.198,642.856,242.335z"/>
	<path fill-rule="evenodd" clip-rule="evenodd" fill="#C42026" d="M684.912,242.254c7.021,0,14.044,0,21.067,0
		c0,7.05,0,14.1,0,21.15c-7.05,0-14.1,0-21.149,0C684.884,256.382,684.72,249.139,684.912,242.254z"/>
	<path fill-rule="evenodd" clip-rule="evenodd" fill="#C42026" d="M716.513,242.254c7.024,0,14.046,0,21.07,0c0,7.05,0,14.1,0,21.15
		c-7.051,0-14.102,0-21.152,0C716.487,256.382,716.322,249.139,716.513,242.254z"/>
	<path fill-rule="evenodd" clip-rule="evenodd" fill="#610C0D" d="M800.87,242.335c-0.057,7.023,0.109,14.265-0.083,21.151
		c-7.024,0-14.044,0-21.067,0c-0.194-6.887-0.027-14.128-0.084-21.151C786.521,242.198,793.983,242.198,800.87,242.335z"/>
	<path fill-rule="evenodd" clip-rule="evenodd" fill="#610C0D" d="M42.411,273.938c-0.055,7.023,0.109,14.266-0.083,21.151
		c-7.022,0-14.045,0-21.068,0c-0.191-6.886-0.027-14.128-0.082-21.151C28.063,273.801,35.525,273.801,42.411,273.938z"/>
	<path fill-rule="evenodd" clip-rule="evenodd" fill="#C42026" d="M84.464,273.855c7.022,0,14.046,0,21.068,0
		c0,7.05,0,14.101,0,21.15c-7.05,0-14.1,0-21.15,0C84.437,287.983,84.272,280.741,84.464,273.855z"/>
	<path fill-rule="evenodd" clip-rule="evenodd" fill="#C42026" d="M116.067,273.855c7.022,0,14.046,0,21.068,0
		c0,7.05,0,14.101,0,21.15c-7.051,0-14.101,0-21.15,0C116.04,287.983,115.875,280.741,116.067,273.855z"/>
	<path fill-rule="evenodd" clip-rule="evenodd" fill="#C42026" d="M147.669,273.855c7.023,0,14.046,0,21.068,0
		c0,7.05,0,14.101,0,21.15c-7.051,0-14.101,0-21.15,0C147.642,287.983,147.478,280.741,147.669,273.855z"/>
	<path fill-rule="evenodd" clip-rule="evenodd" fill="#C42026" d="M179.272,273.855c7.022,0,14.046,0,21.068,0
		c0,7.05,0,14.101,0,21.15c-7.051,0-14.101,0-21.15,0C179.244,287.983,179.08,280.741,179.272,273.855z"/>
	<path fill-rule="evenodd" clip-rule="evenodd" fill="#C42026" d="M210.875,273.855c7.022,0,14.046,0,21.068,0
		c0,7.05,0,14.101,0,21.15c-7.051,0-14.102,0-21.151,0C210.846,287.983,210.683,280.741,210.875,273.855z"/>
	<path fill-rule="evenodd" clip-rule="evenodd" fill="#C42026" d="M242.477,273.855c7.022,0,14.045,0,21.068,0
		c0,7.05,0,14.101,0,21.15c-7.051,0-14.101,0-21.151,0C242.45,287.983,242.286,280.741,242.477,273.855z"/>
	<path fill-rule="evenodd" clip-rule="evenodd" fill="#C42026" d="M274.079,273.855c7.023,0,14.046,0,21.069,0
		c0,7.05,0,14.101,0,21.15c-7.051,0-14.101,0-21.15,0C274.051,287.983,273.887,280.741,274.079,273.855z"/>
	<path fill-rule="evenodd" clip-rule="evenodd" fill="#C42026" d="M305.681,273.855c7.023,0,14.046,0,21.069,0
		c0,7.05,0,14.101,0,21.15c-7.051,0-14.101,0-21.151,0C305.655,287.983,305.49,280.741,305.681,273.855z"/>
	<path fill-rule="evenodd" clip-rule="evenodd" fill="#C42026" d="M337.284,273.855c7.023,0,14.046,0,21.069,0
		c0,7.05,0,14.101,0,21.15c-7.051,0-14.102,0-21.151,0C337.257,287.983,337.092,280.741,337.284,273.855z"/>
	<path fill-rule="evenodd" clip-rule="evenodd" fill="#C42026" d="M400.489,273.855c7.023,0,14.045,0,21.069,0
		c0,7.05,0,14.101,0,21.15c-7.051,0-14.101,0-21.151,0C400.461,287.983,400.297,280.741,400.489,273.855z"/>
	<path fill-rule="evenodd" clip-rule="evenodd" fill="#C42026" d="M432.092,273.855c7.021,0,14.046,0,21.069,0
		c0,7.05,0,14.101,0,21.15c-7.052,0-14.103,0-21.152,0C432.063,287.983,431.899,280.741,432.092,273.855z"/>
	<path fill-rule="evenodd" clip-rule="evenodd" fill="#610C0D" d="M548.05,273.938c-0.054,7.023,0.109,14.266-0.082,21.151
		c-7.023,0-14.046,0-21.068,0c-0.191-6.886-0.028-14.128-0.082-21.151C533.702,273.801,541.163,273.801,548.05,273.938z"/>
	<path fill-rule="evenodd" clip-rule="evenodd" fill="#C42026" d="M590.104,273.855c7.021,0,14.045,0,21.067,0
		c0,7.05,0,14.101,0,21.15c-7.05,0-14.101,0-21.15,0C590.077,287.983,589.912,280.741,590.104,273.855z"/>
	<path fill-rule="evenodd" clip-rule="evenodd" fill="#C42026" d="M621.708,273.855c7.021,0,14.043,0,21.066,0
		c0,7.05,0,14.101,0,21.15c-7.051,0-14.1,0-21.15,0C621.679,287.983,621.514,280.741,621.708,273.855z"/>
	<path fill-rule="evenodd" clip-rule="evenodd" fill="#C42026" d="M653.308,273.855c7.023,0,14.047,0,21.07,0
		c0,7.05,0,14.101,0,21.15c-7.051,0-14.102,0-21.152,0C653.282,287.983,653.116,280.741,653.308,273.855z"/>
	<path fill-rule="evenodd" clip-rule="evenodd" fill="#C42026" d="M684.912,273.855c7.021,0,14.044,0,21.067,0
		c0,7.05,0,14.101,0,21.15c-7.05,0-14.1,0-21.149,0C684.884,287.983,684.72,280.741,684.912,273.855z"/>
	<path fill-rule="evenodd" clip-rule="evenodd" fill="#C42026" d="M716.513,273.855c7.024,0,14.046,0,21.07,0
		c0,7.05,0,14.101,0,21.15c-7.051,0-14.102,0-21.152,0C716.487,287.983,716.322,280.741,716.513,273.855z"/>
	<path fill-rule="evenodd" clip-rule="evenodd" fill="#C42026" d="M748.116,273.855c7.022,0,14.046,0,21.068,0
		c0,7.05,0,14.101,0,21.15c-7.051,0-14.102,0-21.15,0C748.088,287.983,747.925,280.741,748.116,273.855z"/>
	<path fill-rule="evenodd" clip-rule="evenodd" fill="#C42026" d="M779.72,273.855c7.023,0,14.043,0,21.067,0
		c0,7.05,0,14.101,0,21.15c-7.05,0-14.101,0-21.151,0C779.692,287.983,779.525,280.741,779.72,273.855z"/>
	<path fill-rule="evenodd" clip-rule="evenodd" fill="#C42026" d="M21.259,305.458c7.023,0,14.046,0,21.068,0
		c0,7.051,0,14.101,0,21.15c-7.05,0-14.101,0-21.15,0C21.232,319.585,21.068,312.344,21.259,305.458z"/>
	<path fill-rule="evenodd" clip-rule="evenodd" fill="#610C0D" d="M74.012,305.541c-0.054,7.022,0.11,14.264-0.082,21.149
		c-7.022,0-14.045,0-21.068,0c-0.191-6.886-0.027-14.127-0.082-21.149C59.666,305.403,67.126,305.403,74.012,305.541z"/>
	<path fill-rule="evenodd" clip-rule="evenodd" fill="#610C0D" d="M137.218,305.541c-0.056,7.022,0.109,14.264-0.083,21.149
		c-7.022,0-14.046,0-21.068,0c-0.192-6.886-0.027-14.127-0.082-21.149C122.871,305.403,130.332,305.403,137.218,305.541z"/>
	<path fill-rule="evenodd" clip-rule="evenodd" fill="#C42026" d="M147.669,305.458c7.023,0,14.046,0,21.068,0
		c0,7.051,0,14.101,0,21.15c-7.051,0-14.101,0-21.15,0C147.642,319.585,147.478,312.344,147.669,305.458z"/>
	<path fill-rule="evenodd" clip-rule="evenodd" fill="#610C0D" d="M200.422,305.541c-0.055,7.022,0.109,14.264-0.082,21.149
		c-7.022,0-14.046,0-21.068,0c-0.192-6.886-0.028-14.127-0.082-21.149C186.076,305.403,193.537,305.403,200.422,305.541z"/>
	<path fill-rule="evenodd" clip-rule="evenodd" fill="#C42026" d="M242.477,305.458c7.022,0,14.045,0,21.068,0
		c0,7.051,0,14.101,0,21.15c-7.051,0-14.101,0-21.151,0C242.45,319.585,242.286,312.344,242.477,305.458z"/>
	<path fill-rule="evenodd" clip-rule="evenodd" fill="#610C0D" d="M358.434,305.541c-0.054,7.022,0.11,14.264-0.081,21.149
		c-7.023,0-14.046,0-21.069,0c-0.191-6.886-0.026-14.127-0.082-21.149C344.087,305.403,351.549,305.403,358.434,305.541z"/>
	<path fill-rule="evenodd" clip-rule="evenodd" fill="#C42026" d="M368.887,305.458c7.022,0,14.045,0,21.068,0
		c0,7.051,0,14.101,0,21.15c-7.051,0-14.101,0-21.151,0C368.859,319.585,368.695,312.344,368.887,305.458z"/>
	<path fill-rule="evenodd" clip-rule="evenodd" fill="#610C0D" d="M484.845,305.541c-0.056,7.022,0.11,14.264-0.082,21.149
		c-7.024,0-14.046,0-21.068,0c-0.192-6.886-0.029-14.127-0.081-21.149C470.497,305.403,477.959,305.403,484.845,305.541z"/>
	<path fill-rule="evenodd" clip-rule="evenodd" fill="#C42026" d="M495.297,305.458c7.022,0,14.045,0,21.067,0
		c0,7.051,0,14.101,0,21.15c-7.049,0-14.1,0-21.15,0C495.269,319.585,495.104,312.344,495.297,305.458z"/>
	<path fill-rule="evenodd" clip-rule="evenodd" fill="#C42026" d="M526.899,305.458c7.022,0,14.045,0,21.068,0
		c0,7.051,0,14.101,0,21.15c-7.051,0-14.101,0-21.15,0C526.871,319.585,526.708,312.344,526.899,305.458z"/>
	<path fill-rule="evenodd" clip-rule="evenodd" fill="#610C0D" d="M579.651,305.541c-0.053,7.022,0.109,14.264-0.082,21.149
		c-7.022,0-14.045,0-21.068,0c-0.191-6.886-0.027-14.127-0.083-21.149C565.304,305.403,572.767,305.403,579.651,305.541z"/>
	<path fill-rule="evenodd" clip-rule="evenodd" fill="#610C0D" d="M642.856,305.541c-0.056,7.022,0.109,14.264-0.082,21.149
		c-7.023,0-14.045,0-21.066,0c-0.194-6.886-0.029-14.127-0.084-21.149C628.509,305.403,635.972,305.403,642.856,305.541z"/>
	<path fill-rule="evenodd" clip-rule="evenodd" fill="#C42026" d="M653.308,305.458c7.023,0,14.047,0,21.07,0
		c0,7.051,0,14.101,0,21.15c-7.051,0-14.102,0-21.152,0C653.282,319.585,653.116,312.344,653.308,305.458z"/>
	<path fill-rule="evenodd" clip-rule="evenodd" fill="#610C0D" d="M706.062,305.541c-0.055,7.022,0.11,14.264-0.082,21.149
		c-7.023,0-14.046,0-21.067,0c-0.192-6.886-0.028-14.127-0.082-21.149C691.716,305.403,699.175,305.403,706.062,305.541z"/>
	<path fill-rule="evenodd" clip-rule="evenodd" fill="#C42026" d="M748.116,305.458c7.022,0,14.046,0,21.068,0
		c0,7.051,0,14.101,0,21.15c-7.051,0-14.102,0-21.15,0C748.088,319.585,747.925,312.344,748.116,305.458z"/>
	<path fill-rule="evenodd" clip-rule="evenodd" fill="#C42026" d="M21.259,337.061c7.023,0,14.046,0,21.068,0c0,7.05,0,14.1,0,21.15
		c-7.05,0-14.101,0-21.15,0C21.232,351.188,21.068,343.945,21.259,337.061z"/>
	<path fill-rule="evenodd" clip-rule="evenodd" fill="#610C0D" d="M74.012,337.142c-0.054,7.023,0.11,14.266-0.082,21.15
		c-7.022,0-14.045,0-21.068,0c-0.191-6.885-0.027-14.127-0.082-21.15C59.666,337.005,67.126,337.005,74.012,337.142z"/>
	<path fill-rule="evenodd" clip-rule="evenodd" fill="#C42026" d="M84.464,337.061c7.022,0,14.046,0,21.068,0c0,7.05,0,14.1,0,21.15
		c-7.05,0-14.1,0-21.15,0C84.437,351.188,84.272,343.945,84.464,337.061z"/>
	<path fill-rule="evenodd" clip-rule="evenodd" fill="#610C0D" d="M137.218,337.142c-0.056,7.023,0.109,14.266-0.083,21.15
		c-7.022,0-14.046,0-21.068,0c-0.192-6.885-0.027-14.127-0.082-21.15C122.871,337.005,130.332,337.005,137.218,337.142z"/>
	<path fill-rule="evenodd" clip-rule="evenodd" fill="#C42026" d="M147.669,337.061c7.023,0,14.046,0,21.068,0
		c0,7.05,0,14.1,0,21.15c-7.051,0-14.101,0-21.15,0C147.642,351.188,147.478,343.945,147.669,337.061z"/>
	<path fill-rule="evenodd" clip-rule="evenodd" fill="#C42026" d="M210.875,337.061c7.022,0,14.046,0,21.068,0
		c0,7.05,0,14.1,0,21.15c-7.051,0-14.102,0-21.151,0C210.846,351.188,210.683,343.945,210.875,337.061z"/>
	<path fill-rule="evenodd" clip-rule="evenodd" fill="#C42026" d="M242.477,337.061c7.022,0,14.045,0,21.068,0
		c0,7.05,0,14.1,0,21.15c-7.051,0-14.101,0-21.151,0C242.45,351.188,242.286,343.945,242.477,337.061z"/>
	<path fill-rule="evenodd" clip-rule="evenodd" fill="#C42026" d="M305.681,337.061c7.023,0,14.046,0,21.069,0
		c0,7.05,0,14.1,0,21.15c-7.051,0-14.101,0-21.151,0C305.655,351.188,305.49,343.945,305.681,337.061z"/>
	<path fill-rule="evenodd" clip-rule="evenodd" fill="#610C0D" d="M358.434,337.142c-0.054,7.023,0.11,14.266-0.081,21.15
		c-7.023,0-14.046,0-21.069,0c-0.191-6.885-0.026-14.127-0.082-21.15C344.087,337.005,351.549,337.005,358.434,337.142z"/>
	<path fill-rule="evenodd" clip-rule="evenodd" fill="#C42026" d="M368.887,337.061c7.022,0,14.045,0,21.068,0
		c0,7.05,0,14.1,0,21.15c-7.051,0-14.101,0-21.151,0C368.859,351.188,368.695,343.945,368.887,337.061z"/>
	<path fill-rule="evenodd" clip-rule="evenodd" fill="#610C0D" d="M484.845,337.142c-0.056,7.023,0.11,14.266-0.082,21.15
		c-7.024,0-14.046,0-21.068,0c-0.192-6.885-0.029-14.127-0.081-21.15C470.497,337.005,477.959,337.005,484.845,337.142z"/>
	<path fill-rule="evenodd" clip-rule="evenodd" fill="#C42026" d="M495.297,337.061c7.022,0,14.045,0,21.067,0
		c0,7.05,0,14.1,0,21.15c-7.049,0-14.1,0-21.15,0C495.269,351.188,495.104,343.945,495.297,337.061z"/>
	<path fill-rule="evenodd" clip-rule="evenodd" fill="#C42026" d="M526.899,337.061c7.022,0,14.045,0,21.068,0
		c0,7.05,0,14.1,0,21.15c-7.051,0-14.101,0-21.15,0C526.871,351.188,526.708,343.945,526.899,337.061z"/>
	<path fill-rule="evenodd" clip-rule="evenodd" fill="#610C0D" d="M579.651,337.142c-0.053,7.023,0.109,14.266-0.082,21.15
		c-7.022,0-14.045,0-21.068,0c-0.191-6.885-0.027-14.127-0.083-21.15C565.304,337.005,572.767,337.005,579.651,337.142z"/>
	<path fill-rule="evenodd" clip-rule="evenodd" fill="#C42026" d="M590.104,337.061c7.021,0,14.045,0,21.067,0
		c0,7.05,0,14.1,0,21.15c-7.05,0-14.101,0-21.15,0C590.077,351.188,589.912,343.945,590.104,337.061z"/>
	<path fill-rule="evenodd" clip-rule="evenodd" fill="#610C0D" d="M642.856,337.142c-0.056,7.023,0.109,14.266-0.082,21.15
		c-7.023,0-14.045,0-21.066,0c-0.194-6.885-0.029-14.127-0.084-21.15C628.509,337.005,635.972,337.005,642.856,337.142z"/>
	<path fill-rule="evenodd" clip-rule="evenodd" fill="#C42026" d="M653.308,337.061c7.023,0,14.047,0,21.07,0c0,7.05,0,14.1,0,21.15
		c-7.051,0-14.102,0-21.152,0C653.282,351.188,653.116,343.945,653.308,337.061z"/>
	<path fill-rule="evenodd" clip-rule="evenodd" fill="#C42026" d="M716.513,337.061c7.024,0,14.046,0,21.07,0c0,7.05,0,14.1,0,21.15
		c-7.051,0-14.102,0-21.152,0C716.487,351.188,716.322,343.945,716.513,337.061z"/>
	<path fill-rule="evenodd" clip-rule="evenodd" fill="#C42026" d="M748.116,337.061c7.022,0,14.046,0,21.068,0
		c0,7.05,0,14.1,0,21.15c-7.051,0-14.102,0-21.15,0C748.088,351.188,747.925,343.945,748.116,337.061z"/>
	<path fill-rule="evenodd" clip-rule="evenodd" fill="#610C0D" d="M74.012,368.744c-0.054,7.023,0.11,14.265-0.082,21.151
		c-7.022,0-14.045,0-21.068,0c-0.191-6.887-0.027-14.128-0.082-21.151C59.666,368.607,67.126,368.607,74.012,368.744z"/>
	<path fill-rule="evenodd" clip-rule="evenodd" fill="#C42026" d="M84.464,368.663c7.022,0,14.046,0,21.068,0
		c0,7.05,0,14.101,0,21.15c-7.05,0-14.1,0-21.15,0C84.437,382.79,84.272,375.548,84.464,368.663z"/>
	<path fill-rule="evenodd" clip-rule="evenodd" fill="#C42026" d="M147.669,368.663c7.023,0,14.046,0,21.068,0
		c0,7.05,0,14.101,0,21.15c-7.051,0-14.101,0-21.15,0C147.642,382.79,147.478,375.548,147.669,368.663z"/>
	<path fill-rule="evenodd" clip-rule="evenodd" fill="#C42026" d="M179.272,368.663c7.022,0,14.046,0,21.068,0
		c0,7.05,0,14.101,0,21.15c-7.051,0-14.101,0-21.15,0C179.244,382.79,179.08,375.548,179.272,368.663z"/>
	<path fill-rule="evenodd" clip-rule="evenodd" fill="#C42026" d="M210.875,368.663c7.022,0,14.046,0,21.068,0
		c0,7.05,0,14.101,0,21.15c-7.051,0-14.102,0-21.151,0C210.846,382.79,210.683,375.548,210.875,368.663z"/>
	<path fill-rule="evenodd" clip-rule="evenodd" fill="#C42026" d="M242.477,368.663c7.022,0,14.045,0,21.068,0
		c0,7.05,0,14.101,0,21.15c-7.051,0-14.101,0-21.151,0C242.45,382.79,242.286,375.548,242.477,368.663z"/>
	<path fill-rule="evenodd" clip-rule="evenodd" fill="#C42026" d="M305.681,368.663c7.023,0,14.046,0,21.069,0
		c0,7.05,0,14.101,0,21.15c-7.051,0-14.101,0-21.151,0C305.655,382.79,305.49,375.548,305.681,368.663z"/>
	<path fill-rule="evenodd" clip-rule="evenodd" fill="#C42026" d="M368.887,368.663c7.022,0,14.045,0,21.068,0
		c0,7.05,0,14.101,0,21.15c-7.051,0-14.101,0-21.151,0C368.859,382.79,368.695,375.548,368.887,368.663z"/>
	<path fill-rule="evenodd" clip-rule="evenodd" fill="#C42026" d="M400.489,368.663c7.023,0,14.045,0,21.069,0
		c0,7.05,0,14.101,0,21.15c-7.051,0-14.101,0-21.151,0C400.461,382.79,400.297,375.548,400.489,368.663z"/>
	<path fill-rule="evenodd" clip-rule="evenodd" fill="#610C0D" d="M484.845,368.744c-0.056,7.023,0.11,14.265-0.082,21.151
		c-7.024,0-14.046,0-21.068,0c-0.192-6.887-0.029-14.128-0.081-21.151C470.497,368.607,477.959,368.607,484.845,368.744z"/>
	<path fill-rule="evenodd" clip-rule="evenodd" fill="#610C0D" d="M579.651,368.744c-0.053,7.023,0.109,14.265-0.082,21.151
		c-7.022,0-14.045,0-21.068,0c-0.191-6.887-0.027-14.128-0.083-21.151C565.304,368.607,572.767,368.607,579.651,368.744z"/>
	<path fill-rule="evenodd" clip-rule="evenodd" fill="#C42026" d="M590.104,368.663c7.021,0,14.045,0,21.067,0
		c0,7.05,0,14.101,0,21.15c-7.05,0-14.101,0-21.15,0C590.077,382.79,589.912,375.548,590.104,368.663z"/>
	<path fill-rule="evenodd" clip-rule="evenodd" fill="#C42026" d="M653.308,368.663c7.023,0,14.047,0,21.07,0
		c0,7.05,0,14.101,0,21.15c-7.051,0-14.102,0-21.152,0C653.282,382.79,653.116,375.548,653.308,368.663z"/>
	<path fill-rule="evenodd" clip-rule="evenodd" fill="#C42026" d="M684.912,368.663c7.021,0,14.044,0,21.067,0
		c0,7.05,0,14.101,0,21.15c-7.05,0-14.1,0-21.149,0C684.884,382.79,684.72,375.548,684.912,368.663z"/>
	<path fill-rule="evenodd" clip-rule="evenodd" fill="#C42026" d="M716.513,368.663c7.024,0,14.046,0,21.07,0
		c0,7.05,0,14.101,0,21.15c-7.051,0-14.102,0-21.152,0C716.487,382.79,716.322,375.548,716.513,368.663z"/>
	<path fill-rule="evenodd" clip-rule="evenodd" fill="#C42026" d="M748.116,368.663c7.022,0,14.046,0,21.068,0
		c0,7.05,0,14.101,0,21.15c-7.051,0-14.102,0-21.15,0C748.088,382.79,747.925,375.548,748.116,368.663z"/>
	<path fill-rule="evenodd" clip-rule="evenodd" fill="#610C0D" d="M105.615,400.347c-0.054,7.023,0.109,14.266-0.082,21.151
		c-7.022,0-14.046,0-21.068,0c-0.192-6.886-0.027-14.128-0.082-21.151C91.268,400.21,98.729,400.21,105.615,400.347z"/>
	<path fill-rule="evenodd" clip-rule="evenodd" fill="#610C0D" d="M137.218,400.347c-0.056,7.023,0.109,14.266-0.083,21.151
		c-7.022,0-14.046,0-21.068,0c-0.192-6.886-0.027-14.128-0.082-21.151C122.871,400.21,130.332,400.21,137.218,400.347z"/>
	<path fill-rule="evenodd" clip-rule="evenodd" fill="#610C0D" d="M295.23,400.347c-0.055,7.023,0.109,14.266-0.082,21.151
		c-7.023,0-14.046,0-21.069,0c-0.191-6.886-0.027-14.128-0.081-21.151C280.882,400.21,288.343,400.21,295.23,400.347z"/>
	<path fill-rule="evenodd" clip-rule="evenodd" fill="#610C0D" d="M453.242,400.347c-0.056,7.023,0.109,14.266-0.081,21.151
		c-7.023,0-14.048,0-21.069,0c-0.192-6.886-0.028-14.128-0.083-21.151C438.896,400.21,446.355,400.21,453.242,400.347z"/>
	<path fill-rule="evenodd" clip-rule="evenodd" fill="#610C0D" d="M611.255,400.347c-0.055,7.023,0.109,14.266-0.083,21.151
		c-7.022,0-14.046,0-21.067,0c-0.192-6.886-0.027-14.128-0.083-21.151C596.907,400.21,604.368,400.21,611.255,400.347z"/>
	<path fill-rule="evenodd" clip-rule="evenodd" fill="#610C0D" d="M642.856,400.347c-0.056,7.023,0.109,14.266-0.082,21.151
		c-7.023,0-14.045,0-21.066,0c-0.194-6.886-0.029-14.128-0.084-21.151C628.509,400.21,635.972,400.21,642.856,400.347z"/>
	<path fill-rule="evenodd" clip-rule="evenodd" fill="#610C0D" d="M800.87,400.347c-0.057,7.023,0.109,14.266-0.083,21.151
		c-7.024,0-14.044,0-21.067,0c-0.194-6.886-0.027-14.128-0.084-21.151C786.521,400.21,793.983,400.21,800.87,400.347z"/>
	<path fill-rule="evenodd" clip-rule="evenodd" fill="#610C0D" d="M42.411,431.949c-0.055,7.023,0.109,14.266-0.083,21.15
		c-7.022,0-14.045,0-21.068,0c-0.191-6.885-0.027-14.127-0.082-21.15C28.063,431.813,35.525,431.813,42.411,431.949z"/>
	<path fill-rule="evenodd" clip-rule="evenodd" fill="#C42026" d="M52.862,431.867c7.023,0,14.046,0,21.068,0
		c0,7.049,0,14.1,0,21.15c-7.05,0-14.1,0-21.15,0C52.834,445.995,52.67,438.753,52.862,431.867z"/>
	<path fill-rule="evenodd" clip-rule="evenodd" fill="#C42026" d="M116.067,431.867c7.022,0,14.046,0,21.068,0
		c0,7.049,0,14.1,0,21.15c-7.051,0-14.101,0-21.15,0C116.04,445.995,115.875,438.753,116.067,431.867z"/>
	<path fill-rule="evenodd" clip-rule="evenodd" fill="#C42026" d="M147.669,431.867c7.023,0,14.046,0,21.068,0
		c0,7.049,0,14.1,0,21.15c-7.051,0-14.101,0-21.15,0C147.642,445.995,147.478,438.753,147.669,431.867z"/>
	<path fill-rule="evenodd" clip-rule="evenodd" fill="#C42026" d="M210.875,431.867c7.022,0,14.046,0,21.068,0
		c0,7.049,0,14.1,0,21.15c-7.051,0-14.102,0-21.151,0C210.846,445.995,210.683,438.753,210.875,431.867z"/>
	<path fill-rule="evenodd" clip-rule="evenodd" fill="#C42026" d="M305.681,431.867c7.023,0,14.046,0,21.069,0
		c0,7.049,0,14.1,0,21.15c-7.051,0-14.101,0-21.151,0C305.655,445.995,305.49,438.753,305.681,431.867z"/>
	<path fill-rule="evenodd" clip-rule="evenodd" fill="#C42026" d="M400.489,431.867c7.023,0,14.045,0,21.069,0
		c0,7.049,0,14.1,0,21.15c-7.051,0-14.101,0-21.151,0C400.461,445.995,400.297,438.753,400.489,431.867z"/>
	<path fill-rule="evenodd" clip-rule="evenodd" fill="#C42026" d="M463.694,431.867c7.022,0,14.044,0,21.068,0
		c0,7.049,0,14.1,0,21.15c-7.05,0-14.1,0-21.149,0C463.665,445.995,463.502,438.753,463.694,431.867z"/>
	<path fill-rule="evenodd" clip-rule="evenodd" fill="#610C0D" d="M548.05,431.949c-0.054,7.023,0.109,14.266-0.082,21.15
		c-7.023,0-14.046,0-21.068,0c-0.191-6.885-0.028-14.127-0.082-21.15C533.702,431.813,541.163,431.813,548.05,431.949z"/>
	<path fill-rule="evenodd" clip-rule="evenodd" fill="#C42026" d="M558.501,431.867c7.023,0,14.046,0,21.068,0
		c0,7.049,0,14.1,0,21.15c-7.051,0-14.1,0-21.151,0C558.474,445.995,558.31,438.753,558.501,431.867z"/>
	<path fill-rule="evenodd" clip-rule="evenodd" fill="#C42026" d="M621.708,431.867c7.021,0,14.043,0,21.066,0
		c0,7.049,0,14.1,0,21.15c-7.051,0-14.1,0-21.15,0C621.679,445.995,621.514,438.753,621.708,431.867z"/>
	<path fill-rule="evenodd" clip-rule="evenodd" fill="#C42026" d="M653.308,431.867c7.023,0,14.047,0,21.07,0
		c0,7.049,0,14.1,0,21.15c-7.051,0-14.102,0-21.152,0C653.282,445.995,653.116,438.753,653.308,431.867z"/>
	<path fill-rule="evenodd" clip-rule="evenodd" fill="#C42026" d="M716.513,431.867c7.024,0,14.046,0,21.07,0
		c0,7.049,0,14.1,0,21.15c-7.051,0-14.102,0-21.152,0C716.487,445.995,716.322,438.753,716.513,431.867z"/>
	<path fill-rule="evenodd" clip-rule="evenodd" fill="#C42026" d="M21.259,463.47c7.023,0,14.046,0,21.068,0
		c0,7.051,0,14.101,0,21.15c-7.05,0-14.101,0-21.15,0C21.232,477.597,21.068,470.355,21.259,463.47z"/>
	<path fill-rule="evenodd" clip-rule="evenodd" fill="#C42026" d="M52.862,463.47c7.023,0,14.046,0,21.068,0
		c0,7.051,0,14.101,0,21.15c-7.05,0-14.1,0-21.15,0C52.834,477.597,52.67,470.355,52.862,463.47z"/>
	<path fill-rule="evenodd" clip-rule="evenodd" fill="#610C0D" d="M105.615,463.553c-0.054,7.021,0.109,14.265-0.082,21.15
		c-7.022,0-14.046,0-21.068,0c-0.192-6.886-0.027-14.129-0.082-21.15C91.268,463.415,98.729,463.415,105.615,463.553z"/>
	<path fill-rule="evenodd" clip-rule="evenodd" fill="#610C0D" d="M137.218,463.553c-0.056,7.021,0.109,14.265-0.083,21.15
		c-7.022,0-14.046,0-21.068,0c-0.192-6.886-0.027-14.129-0.082-21.15C122.871,463.415,130.332,463.415,137.218,463.553z"/>
	<path fill-rule="evenodd" clip-rule="evenodd" fill="#C42026" d="M147.669,463.47c7.023,0,14.046,0,21.068,0
		c0,7.051,0,14.101,0,21.15c-7.051,0-14.101,0-21.15,0C147.642,477.597,147.478,470.355,147.669,463.47z"/>
	<path fill-rule="evenodd" clip-rule="evenodd" fill="#C42026" d="M179.272,463.47c7.022,0,14.046,0,21.068,0
		c0,7.051,0,14.101,0,21.15c-7.051,0-14.101,0-21.15,0C179.244,477.597,179.08,470.355,179.272,463.47z"/>
	<path fill-rule="evenodd" clip-rule="evenodd" fill="#610C0D" d="M295.23,463.553c-0.055,7.021,0.109,14.265-0.082,21.15
		c-7.023,0-14.046,0-21.069,0c-0.191-6.886-0.027-14.129-0.081-21.15C280.882,463.415,288.343,463.415,295.23,463.553z"/>
	<path fill-rule="evenodd" clip-rule="evenodd" fill="#610C0D" d="M326.833,463.553c-0.056,7.021,0.109,14.265-0.082,21.15
		c-7.023,0-14.046,0-21.069,0c-0.191-6.886-0.026-14.129-0.082-21.15C312.485,463.415,319.947,463.415,326.833,463.553z"/>
	<path fill-rule="evenodd" clip-rule="evenodd" fill="#C42026" d="M337.284,463.47c7.023,0,14.046,0,21.069,0
		c0,7.051,0,14.101,0,21.15c-7.051,0-14.102,0-21.151,0C337.257,477.597,337.092,470.355,337.284,463.47z"/>
	<path fill-rule="evenodd" clip-rule="evenodd" fill="#C42026" d="M368.887,463.47c7.022,0,14.045,0,21.068,0
		c0,7.051,0,14.101,0,21.15c-7.051,0-14.101,0-21.151,0C368.859,477.597,368.695,470.355,368.887,463.47z"/>
	<path fill-rule="evenodd" clip-rule="evenodd" fill="#610C0D" d="M421.64,463.553c-0.056,7.021,0.109,14.265-0.082,21.15
		c-7.023,0-14.045,0-21.069,0c-0.191-6.886-0.027-14.129-0.082-21.15C407.292,463.415,414.755,463.415,421.64,463.553z"/>
	<path fill-rule="evenodd" clip-rule="evenodd" fill="#610C0D" d="M453.242,463.553c-0.056,7.021,0.109,14.265-0.081,21.15
		c-7.023,0-14.048,0-21.069,0c-0.192-6.886-0.028-14.129-0.083-21.15C438.896,463.415,446.355,463.415,453.242,463.553z"/>
	<path fill-rule="evenodd" clip-rule="evenodd" fill="#C42026" d="M526.899,463.47c7.022,0,14.045,0,21.068,0
		c0,7.051,0,14.101,0,21.15c-7.051,0-14.101,0-21.15,0C526.871,477.597,526.708,470.355,526.899,463.47z"/>
	<path fill-rule="evenodd" clip-rule="evenodd" fill="#C42026" d="M558.501,463.47c7.023,0,14.046,0,21.068,0
		c0,7.051,0,14.101,0,21.15c-7.051,0-14.1,0-21.151,0C558.474,477.597,558.31,470.355,558.501,463.47z"/>
	<path fill-rule="evenodd" clip-rule="evenodd" fill="#610C0D" d="M611.255,463.553c-0.055,7.021,0.109,14.265-0.083,21.15
		c-7.022,0-14.046,0-21.067,0c-0.192-6.886-0.027-14.129-0.083-21.15C596.907,463.415,604.368,463.415,611.255,463.553z"/>
	<path fill-rule="evenodd" clip-rule="evenodd" fill="#610C0D" d="M642.856,463.553c-0.056,7.021,0.109,14.265-0.082,21.15
		c-7.023,0-14.045,0-21.066,0c-0.194-6.886-0.029-14.129-0.084-21.15C628.509,463.415,635.972,463.415,642.856,463.553z"/>
	<path fill-rule="evenodd" clip-rule="evenodd" fill="#C42026" d="M653.308,463.47c7.023,0,14.047,0,21.07,0
		c0,7.051,0,14.101,0,21.15c-7.051,0-14.102,0-21.152,0C653.282,477.597,653.116,470.355,653.308,463.47z"/>
	<path fill-rule="evenodd" clip-rule="evenodd" fill="#C42026" d="M684.912,463.47c7.021,0,14.044,0,21.067,0
		c0,7.051,0,14.101,0,21.15c-7.05,0-14.1,0-21.149,0C684.884,477.597,684.72,470.355,684.912,463.47z"/>
	<path fill-rule="evenodd" clip-rule="evenodd" fill="#610C0D" d="M800.87,463.553c-0.057,7.021,0.109,14.265-0.083,21.15
		c-7.024,0-14.044,0-21.067,0c-0.194-6.886-0.027-14.129-0.084-21.15C786.521,463.415,793.983,463.415,800.87,463.553z"/>
	<path fill-rule="evenodd" clip-rule="evenodd" fill="#C42026" d="M52.862,495.072c7.023,0,14.046,0,21.068,0
		c0,7.05,0,14.101,0,21.15c-7.05,0-14.1,0-21.15,0C52.834,509.2,52.67,501.957,52.862,495.072z"/>
	<path fill-rule="evenodd" clip-rule="evenodd" fill="#C42026" d="M84.464,495.072c7.022,0,14.046,0,21.068,0
		c0,7.05,0,14.101,0,21.15c-7.05,0-14.1,0-21.15,0C84.437,509.2,84.272,501.957,84.464,495.072z"/>
	<path fill-rule="evenodd" clip-rule="evenodd" fill="#C42026" d="M147.669,495.072c7.023,0,14.046,0,21.068,0
		c0,7.05,0,14.101,0,21.15c-7.051,0-14.101,0-21.15,0C147.642,509.2,147.478,501.957,147.669,495.072z"/>
	<path fill-rule="evenodd" clip-rule="evenodd" fill="#610C0D" d="M200.422,495.154c-0.055,7.022,0.109,14.266-0.082,21.151
		c-7.022,0-14.046,0-21.068,0c-0.192-6.886-0.028-14.129-0.082-21.151C186.076,495.017,193.537,495.017,200.422,495.154z"/>
	<path fill-rule="evenodd" clip-rule="evenodd" fill="#C42026" d="M242.477,495.072c7.022,0,14.045,0,21.068,0
		c0,7.05,0,14.101,0,21.15c-7.051,0-14.101,0-21.151,0C242.45,509.2,242.286,501.957,242.477,495.072z"/>
	<path fill-rule="evenodd" clip-rule="evenodd" fill="#C42026" d="M305.681,495.072c7.023,0,14.046,0,21.069,0
		c0,7.05,0,14.101,0,21.15c-7.051,0-14.101,0-21.151,0C305.655,509.2,305.49,501.957,305.681,495.072z"/>
	<path fill-rule="evenodd" clip-rule="evenodd" fill="#C42026" d="M400.489,495.072c7.023,0,14.045,0,21.069,0
		c0,7.05,0,14.101,0,21.15c-7.051,0-14.101,0-21.151,0C400.461,509.2,400.297,501.957,400.489,495.072z"/>
	<path fill-rule="evenodd" clip-rule="evenodd" fill="#C42026" d="M495.297,495.072c7.022,0,14.045,0,21.067,0
		c0,7.05,0,14.101,0,21.15c-7.049,0-14.1,0-21.15,0C495.269,509.2,495.104,501.957,495.297,495.072z"/>
	<path fill-rule="evenodd" clip-rule="evenodd" fill="#C42026" d="M558.501,495.072c7.023,0,14.046,0,21.068,0
		c0,7.05,0,14.101,0,21.15c-7.051,0-14.1,0-21.151,0C558.474,509.2,558.31,501.957,558.501,495.072z"/>
	<path fill-rule="evenodd" clip-rule="evenodd" fill="#C42026" d="M590.104,495.072c7.021,0,14.045,0,21.067,0
		c0,7.05,0,14.101,0,21.15c-7.05,0-14.101,0-21.15,0C590.077,509.2,589.912,501.957,590.104,495.072z"/>
	<path fill-rule="evenodd" clip-rule="evenodd" fill="#C42026" d="M653.308,495.072c7.023,0,14.047,0,21.07,0
		c0,7.05,0,14.101,0,21.15c-7.051,0-14.102,0-21.152,0C653.282,509.2,653.116,501.957,653.308,495.072z"/>
	<path fill-rule="evenodd" clip-rule="evenodd" fill="#610C0D" d="M706.062,495.154c-0.055,7.022,0.11,14.266-0.082,21.151
		c-7.023,0-14.046,0-21.067,0c-0.192-6.886-0.028-14.129-0.082-21.151C691.716,495.017,699.175,495.017,706.062,495.154z"/>
	<path fill-rule="evenodd" clip-rule="evenodd" fill="#C42026" d="M748.116,495.072c7.022,0,14.046,0,21.068,0
		c0,7.05,0,14.101,0,21.15c-7.051,0-14.102,0-21.15,0C748.088,509.2,747.925,501.957,748.116,495.072z"/>
	<path fill-rule="evenodd" clip-rule="evenodd" fill="#610C0D" d="M105.615,526.757c-0.054,7.022,0.109,14.264-0.082,21.15
		c-7.022,0-14.046,0-21.068,0c-0.192-6.887-0.027-14.128-0.082-21.15C91.268,526.619,98.729,526.619,105.615,526.757z"/>
	<path fill-rule="evenodd" clip-rule="evenodd" fill="#610C0D" d="M137.218,526.757c-0.056,7.022,0.109,14.264-0.083,21.15
		c-7.022,0-14.046,0-21.068,0c-0.192-6.887-0.027-14.128-0.082-21.15C122.871,526.619,130.332,526.619,137.218,526.757z"/>
	<path fill-rule="evenodd" clip-rule="evenodd" fill="#610C0D" d="M295.23,526.757c-0.055,7.022,0.109,14.264-0.082,21.15
		c-7.023,0-14.046,0-21.069,0c-0.191-6.887-0.027-14.128-0.081-21.15C280.882,526.619,288.343,526.619,295.23,526.757z"/>
	<path fill-rule="evenodd" clip-rule="evenodd" fill="#610C0D" d="M453.242,526.757c-0.056,7.022,0.109,14.264-0.081,21.15
		c-7.023,0-14.048,0-21.069,0c-0.192-6.887-0.028-14.128-0.083-21.15C438.896,526.619,446.355,526.619,453.242,526.757z"/>
	<path fill-rule="evenodd" clip-rule="evenodd" fill="#610C0D" d="M611.255,526.757c-0.055,7.022,0.109,14.264-0.083,21.15
		c-7.022,0-14.046,0-21.067,0c-0.192-6.887-0.027-14.128-0.083-21.15C596.907,526.619,604.368,526.619,611.255,526.757z"/>
	<path fill-rule="evenodd" clip-rule="evenodd" fill="#610C0D" d="M642.856,526.757c-0.056,7.022,0.109,14.264-0.082,21.15
		c-7.023,0-14.045,0-21.066,0c-0.194-6.887-0.029-14.128-0.084-21.15C628.509,526.619,635.972,526.619,642.856,526.757z"/>
	<path fill-rule="evenodd" clip-rule="evenodd" fill="#610C0D" d="M800.87,526.757c-0.057,7.022,0.109,14.264-0.083,21.15
		c-7.024,0-14.044,0-21.067,0c-0.194-6.887-0.027-14.128-0.084-21.15C786.521,526.619,793.983,526.619,800.87,526.757z"/>
	<path fill-rule="evenodd" clip-rule="evenodd" fill="#C42026" d="M21.259,558.277c7.023,0,14.046,0,21.068,0
		c0,7.05,0,14.101,0,21.15c-7.05,0-14.101,0-21.15,0C21.232,572.404,21.068,565.162,21.259,558.277z"/>
	<path fill-rule="evenodd" clip-rule="evenodd" fill="#C42026" d="M52.862,558.277c7.023,0,14.046,0,21.068,0
		c0,7.05,0,14.101,0,21.15c-7.05,0-14.1,0-21.15,0C52.834,572.404,52.67,565.162,52.862,558.277z"/>
	<path fill-rule="evenodd" clip-rule="evenodd" fill="#C42026" d="M116.067,558.277c7.022,0,14.046,0,21.068,0
		c0,7.05,0,14.101,0,21.15c-7.051,0-14.101,0-21.15,0C116.04,572.404,115.875,565.162,116.067,558.277z"/>
	<path fill-rule="evenodd" clip-rule="evenodd" fill="#610C0D" d="M168.82,558.359c-0.055,7.022,0.11,14.265-0.082,21.15
		c-7.022,0-14.045,0-21.068,0c-0.191-6.886-0.027-14.128-0.082-21.15C154.473,558.222,161.934,558.222,168.82,558.359z"/>
	<path fill-rule="evenodd" clip-rule="evenodd" fill="#610C0D" d="M263.627,558.359c-0.055,7.022,0.109,14.265-0.082,21.15
		c-7.023,0-14.046,0-21.068,0c-0.191-6.886-0.027-14.128-0.083-21.15C249.28,558.222,256.741,558.222,263.627,558.359z"/>
	<path fill-rule="evenodd" clip-rule="evenodd" fill="#C42026" d="M305.681,558.277c7.023,0,14.046,0,21.069,0
		c0,7.05,0,14.101,0,21.15c-7.051,0-14.101,0-21.151,0C305.655,572.404,305.49,565.162,305.681,558.277z"/>
	<path fill-rule="evenodd" clip-rule="evenodd" fill="#C42026" d="M337.284,558.277c7.023,0,14.046,0,21.069,0
		c0,7.05,0,14.101,0,21.15c-7.051,0-14.102,0-21.151,0C337.257,572.404,337.092,565.162,337.284,558.277z"/>
	<path fill-rule="evenodd" clip-rule="evenodd" fill="#C42026" d="M400.489,558.277c7.023,0,14.045,0,21.069,0
		c0,7.05,0,14.101,0,21.15c-7.051,0-14.101,0-21.151,0C400.461,572.404,400.297,565.162,400.489,558.277z"/>
	<path fill-rule="evenodd" clip-rule="evenodd" fill="#C42026" d="M463.694,558.277c7.022,0,14.044,0,21.068,0
		c0,7.05,0,14.101,0,21.15c-7.05,0-14.1,0-21.149,0C463.665,572.404,463.502,565.162,463.694,558.277z"/>
	<path fill-rule="evenodd" clip-rule="evenodd" fill="#C42026" d="M495.297,558.277c7.022,0,14.045,0,21.067,0
		c0,7.05,0,14.101,0,21.15c-7.049,0-14.1,0-21.15,0C495.269,572.404,495.104,565.162,495.297,558.277z"/>
	<path fill-rule="evenodd" clip-rule="evenodd" fill="#C42026" d="M526.899,558.277c7.022,0,14.045,0,21.068,0
		c0,7.05,0,14.101,0,21.15c-7.051,0-14.101,0-21.15,0C526.871,572.404,526.708,565.162,526.899,558.277z"/>
	<path fill-rule="evenodd" clip-rule="evenodd" fill="#C42026" d="M558.501,558.277c7.023,0,14.046,0,21.068,0
		c0,7.05,0,14.101,0,21.15c-7.051,0-14.1,0-21.151,0C558.474,572.404,558.31,565.162,558.501,558.277z"/>
	<path fill-rule="evenodd" clip-rule="evenodd" fill="#C42026" d="M621.708,558.277c7.021,0,14.043,0,21.066,0
		c0,7.05,0,14.101,0,21.15c-7.051,0-14.1,0-21.15,0C621.679,572.404,621.514,565.162,621.708,558.277z"/>
	<path fill-rule="evenodd" clip-rule="evenodd" fill="#610C0D" d="M674.458,558.359c-0.054,7.022,0.111,14.265-0.08,21.15
		c-7.023,0-14.047,0-21.07,0c-0.191-6.886-0.025-14.128-0.082-21.15C660.112,558.222,667.573,558.222,674.458,558.359z"/>
	<path fill-rule="evenodd" clip-rule="evenodd" fill="#610C0D" d="M769.267,558.359c-0.055,7.022,0.111,14.265-0.082,21.15
		c-7.022,0-14.046,0-21.068,0c-0.191-6.886-0.028-14.128-0.082-21.15C754.919,558.222,762.38,558.222,769.267,558.359z"/>
	<path fill-rule="evenodd" clip-rule="evenodd" fill="#C42026" d="M52.862,589.879c7.023,0,14.046,0,21.068,0
		c0,7.05,0,14.101,0,21.151c-7.05,0-14.1,0-21.15,0C52.834,604.008,52.67,596.766,52.862,589.879z"/>
	<path fill-rule="evenodd" clip-rule="evenodd" fill="#610C0D" d="M105.615,589.961c-0.054,7.024,0.109,14.266-0.082,21.15
		c-7.022,0-14.046,0-21.068,0c-0.192-6.885-0.027-14.126-0.082-21.15C91.268,589.825,98.729,589.825,105.615,589.961z"/>
	<path fill-rule="evenodd" clip-rule="evenodd" fill="#C42026" d="M116.067,589.879c7.022,0,14.046,0,21.068,0
		c0,7.05,0,14.101,0,21.151c-7.051,0-14.101,0-21.15,0C116.04,604.008,115.875,596.766,116.067,589.879z"/>
	<path fill-rule="evenodd" clip-rule="evenodd" fill="#610C0D" d="M168.82,589.961c-0.055,7.024,0.11,14.266-0.082,21.15
		c-7.022,0-14.045,0-21.068,0c-0.191-6.885-0.027-14.126-0.082-21.15C154.473,589.825,161.934,589.825,168.82,589.961z"/>
	<path fill-rule="evenodd" clip-rule="evenodd" fill="#C42026" d="M179.272,589.879c7.022,0,14.046,0,21.068,0
		c0,7.05,0,14.101,0,21.151c-7.051,0-14.101,0-21.15,0C179.244,604.008,179.08,596.766,179.272,589.879z"/>
	<path fill-rule="evenodd" clip-rule="evenodd" fill="#C42026" d="M210.875,589.879c7.022,0,14.046,0,21.068,0
		c0,7.05,0,14.101,0,21.151c-7.051,0-14.102,0-21.151,0C210.846,604.008,210.683,596.766,210.875,589.879z"/>
	<path fill-rule="evenodd" clip-rule="evenodd" fill="#610C0D" d="M263.627,589.961c-0.055,7.024,0.109,14.266-0.082,21.15
		c-7.023,0-14.046,0-21.068,0c-0.191-6.885-0.027-14.126-0.083-21.15C249.28,589.825,256.741,589.825,263.627,589.961z"/>
	<path fill-rule="evenodd" clip-rule="evenodd" fill="#C42026" d="M337.284,589.879c7.023,0,14.046,0,21.069,0
		c0,7.05,0,14.101,0,21.151c-7.051,0-14.102,0-21.151,0C337.257,604.008,337.092,596.766,337.284,589.879z"/>
	<path fill-rule="evenodd" clip-rule="evenodd" fill="#610C0D" d="M390.037,589.961c-0.055,7.024,0.11,14.266-0.081,21.15
		c-7.023,0-14.046,0-21.068,0c-0.192-6.885-0.028-14.126-0.083-21.15C375.69,589.825,383.151,589.825,390.037,589.961z"/>
	<path fill-rule="evenodd" clip-rule="evenodd" fill="#C42026" d="M400.489,589.879c7.023,0,14.045,0,21.069,0
		c0,7.05,0,14.101,0,21.151c-7.051,0-14.101,0-21.151,0C400.461,604.008,400.297,596.766,400.489,589.879z"/>
	<path fill-rule="evenodd" clip-rule="evenodd" fill="#C42026" d="M463.694,589.879c7.022,0,14.044,0,21.068,0
		c0,7.05,0,14.101,0,21.151c-7.05,0-14.1,0-21.149,0C463.665,604.008,463.502,596.766,463.694,589.879z"/>
	<path fill-rule="evenodd" clip-rule="evenodd" fill="#C42026" d="M495.297,589.879c7.022,0,14.045,0,21.067,0
		c0,7.05,0,14.101,0,21.151c-7.049,0-14.1,0-21.15,0C495.269,604.008,495.104,596.766,495.297,589.879z"/>
	<path fill-rule="evenodd" clip-rule="evenodd" fill="#C42026" d="M558.501,589.879c7.023,0,14.046,0,21.068,0
		c0,7.05,0,14.101,0,21.151c-7.051,0-14.1,0-21.151,0C558.474,604.008,558.31,596.766,558.501,589.879z"/>
	<path fill-rule="evenodd" clip-rule="evenodd" fill="#610C0D" d="M611.255,589.961c-0.055,7.024,0.109,14.266-0.083,21.15
		c-7.022,0-14.046,0-21.067,0c-0.192-6.885-0.027-14.126-0.083-21.15C596.907,589.825,604.368,589.825,611.255,589.961z"/>
	<path fill-rule="evenodd" clip-rule="evenodd" fill="#C42026" d="M621.708,589.879c7.021,0,14.043,0,21.066,0
		c0,7.05,0,14.101,0,21.151c-7.051,0-14.1,0-21.15,0C621.679,604.008,621.514,596.766,621.708,589.879z"/>
	<path fill-rule="evenodd" clip-rule="evenodd" fill="#610C0D" d="M674.458,589.961c-0.054,7.024,0.111,14.266-0.08,21.15
		c-7.023,0-14.047,0-21.07,0c-0.191-6.885-0.025-14.126-0.082-21.15C660.112,589.825,667.573,589.825,674.458,589.961z"/>
	<path fill-rule="evenodd" clip-rule="evenodd" fill="#C42026" d="M684.912,589.879c7.021,0,14.044,0,21.067,0
		c0,7.05,0,14.101,0,21.151c-7.05,0-14.1,0-21.149,0C684.884,604.008,684.72,596.766,684.912,589.879z"/>
	<path fill-rule="evenodd" clip-rule="evenodd" fill="#C42026" d="M716.513,589.879c7.024,0,14.046,0,21.07,0
		c0,7.05,0,14.101,0,21.151c-7.051,0-14.102,0-21.152,0C716.487,604.008,716.322,596.766,716.513,589.879z"/>
	<path fill-rule="evenodd" clip-rule="evenodd" fill="#610C0D" d="M769.267,589.961c-0.055,7.024,0.111,14.266-0.082,21.15
		c-7.022,0-14.046,0-21.068,0c-0.191-6.885-0.028-14.126-0.082-21.15C754.919,589.825,762.38,589.825,769.267,589.961z"/>
</g>
</svg>
